<svg id="Calque_1" data-name="Calque 1" xmlns="http://www.w3.org/2000/svg" viewBox="0 0 268.52 59.27"><title>Sans titre - 1</title><circle cx="63.32" cy="43.27" r="4.48" style="fill:#fff"/><path d="M222.29,165h-.36a6,6,0,0,1-5.61-6.32,5.9,5.9,0,0,1,2-4.12,6,6,0,0,1,4.32-1.49h0a6,6,0,0,1,5.61,6.32A6,6,0,0,1,222.29,165Zm0-8.95a3,3,0,0,0-3,2.8,3,3,0,1,0,3.15-2.8h-.18Z" transform="translate(-158.97 -115.8)" style="fill:#05f"/><circle cx="80.28" cy="53.29" r="4.48" style="fill:#fff"/><path d="M239.25,175.07h-.36a6,6,0,0,1-5.61-6.33,5.89,5.89,0,0,1,2-4.11,6,6,0,0,1,4.32-1.5h0a6,6,0,0,1-.35,11.95Zm0-9a3.06,3.06,0,1,0,.18,0h-.18Z" transform="translate(-158.97 -115.8)" style="fill:#05f"/><circle cx="97.21" cy="43.27" r="4.48" style="fill:#fff"/><path d="M256.18,165h-.36a6,6,0,1,1,.72-11.93h0a5.89,5.89,0,0,1,4.11,2,6,6,0,0,1-4.47,9.94Zm0-8.95A3,3,0,0,0,256,162a3,3,0,0,0,.36-5.95h-.18Z" transform="translate(-158.97 -115.8)" style="fill:#05f"/><line x1="74.86" y1="30.32" x2="66.2" y2="40.03" style="fill:#fff"/><rect x="222.99" y="149.48" width="13.01" height="3" transform="translate(-194.91 105.91) rotate(-48.26)" style="fill:#05f"/><line x1="80.86" y1="32.32" x2="80.43" y2="47.75" style="fill:#fff"/><rect x="231.9" y="154.33" width="15.43" height="3" transform="translate(-81.84 275.19) rotate(-88.4)" style="fill:#05f"/><line x1="86.86" y1="30.32" x2="94.42" y2="39.78" style="fill:#fff"/><rect x="248.11" y="144.79" width="3" height="12.1" transform="translate(-198.51 73.12) rotate(-38.65)" style="fill:#05f"/><path d="M159.11,145.7a.16.16,0,0,1-.14-.18v-.23a1,1,0,0,1,.24-.6,2.7,2.7,0,0,0,.34-.6c0-.07.07-.2.14-.39s.14-.41.22-.65.15-.46.22-.65.11-.33.14-.4a3,3,0,0,1,.12-.3c.05-.14.12-.29.18-.45s.14-.3.19-.43a.75.75,0,0,0,.09-.25,1.37,1.37,0,0,0,.14-.21l.2-.37c.07-.14.13-.26.19-.36a.49.49,0,0,0,.08-.22c0-.09.12-.35.28-.76l.51-1.31c.18-.47.35-.9.51-1.3s.26-.66.31-.77l.29-.56c.15-.29.25-.48.29-.57l5.54-15.21.12-.25c.06-.13.11-.26.17-.4l.17-.39a1.8,1.8,0,0,0,.12-.29l.17-.17h1l.68,0c.36,0,.76,0,1.2.05s.83,0,1.19.06l.72,0,.44,0a.67.67,0,0,1,.45.16,2.37,2.37,0,0,1,.48.47c.13.19.26.37.37.55l.28.45c.11.18.22.36.32.54s.2.35.29.5a1.74,1.74,0,0,0,.17.25c.07.16.18.41.34.74l.5,1c.17.37.32.7.46,1l.27.58c0,.07.07.22.14.43s.15.45.24.7.17.49.24.7.11.36.14.43a23.37,23.37,0,0,0,1.57,3.5,35.38,35.38,0,0,1,1.64,3.47c.05.14.15.42.31.84s.34.92.56,1.49.44,1.17.67,1.81.45,1.24.66,1.79l.57,1.46c.16.41.26.68.31.82a4.18,4.18,0,0,0,.27.63c.16.33.26.55.31.66a3.46,3.46,0,0,0,.24.5l.34.7c.11.25.23.49.34.7l.24.46v.14a.38.38,0,0,1-.14.29,1.13,1.13,0,0,1-.32.19,2.6,2.6,0,0,1-.4.1l-.3,0H184a3.38,3.38,0,0,0-1,.15,3.53,3.53,0,0,1-1,.15h-.44a2,2,0,0,1-.48-.16l-.07-.07-.07-.06c-.2-.39-.36-.71-.46-.94s-.24-.57-.43-1a2.46,2.46,0,0,1-.24-.44l-.2-.45a4.69,4.69,0,0,1-.24-1.13,2,2,0,0,0-.48-1,.33.33,0,0,0-.14-.09.41.41,0,0,0-.17-.05c-.18,0-.48,0-.9,0l-1.35-.05-1.37,0-.92,0-.29,0-.5,0-.51-.05-.27,0h-.65c-.64,0-1.27,0-1.9.07a16.3,16.3,0,0,0-1.86.24,1.14,1.14,0,0,0-.84.53c-.17.28-.34.59-.5.9,0,.07-.07.2-.13.38l-.23.56-.22.53-.13.31a1.73,1.73,0,0,0-.12.33l-.19.54-.19.55a1.47,1.47,0,0,0-.09.32c-.18.46-.38.7-.61.72s-.56,0-1,0a9,9,0,0,1-2.29-.29A9.05,9.05,0,0,0,159.11,145.7ZM173,126.79a.69.69,0,0,0-.09.16.79.79,0,0,0-.05.15.64.64,0,0,1-.07.24c0,.12-.1.23-.15.36s-.11.25-.16.38a1.24,1.24,0,0,0-.06.22.64.64,0,0,0-.12.22l-.19.41-.19.43a2.44,2.44,0,0,1-.12.24c-.11.27-.25.63-.41,1.09s-.32.91-.48,1.35-.34,1-.55,1.62V134H176s.06,0,.13-.12l.17-.19v-.13a1.64,1.64,0,0,0-.17-.67l-.27-.63q-.31-.58-.75-1.47L174.2,129c-.29-.56-.64-1.24-1-2.07Z" transform="translate(-158.97 -115.8)" style="fill:#1d1d1b"/><path d="M219.36,145.56a4.45,4.45,0,0,1-.06-.46q0-.33-.09-.69l-.09-.7q0-.33,0-.48c0-.09,0-.32,0-.7s0-.78-.05-1.21,0-.83-.06-1.2,0-.59,0-.68a5.24,5.24,0,0,0-.09-.89c-.05-.34-.12-.65-.18-.92a12.42,12.42,0,0,1-.17-1.27c-.07-.61-.15-1.26-.23-1.94s-.15-1.33-.22-1.94-.11-1-.14-1.28a1.69,1.69,0,0,1-.06-.39,1.45,1.45,0,0,0-.11-.46,2.17,2.17,0,0,0-.06-.34c0-.09,0-.17-.07-.24h-.11a12.4,12.4,0,0,1-.61,1.74,9.35,9.35,0,0,0-.58,1.74,3.11,3.11,0,0,1-.09.5c0,.26-.12.54-.19.84s-.13.57-.18.82-.1.41-.12.48-.1.38-.22.8-.27.87-.43,1.35-.3.92-.43,1.33-.2.66-.22.75c-.3,1-.55,1.92-.75,2.81a9.74,9.74,0,0,1-1.06,2.63l-.07.07a.1.1,0,0,0,0,.07h-5a.53.53,0,0,1-.22-.11,1.72,1.72,0,0,1-.22-.17q-1-2.28-2-4.58t-1.82-4.65a2.46,2.46,0,0,1-.14-.37c-.07-.21-.15-.42-.24-.65s-.17-.45-.24-.65a1.71,1.71,0,0,1-.1-.38,1.18,1.18,0,0,1-.12-.24c-.06-.13-.12-.27-.19-.41s-.13-.26-.19-.39l-.12-.26c-.13-.38-.26-.78-.37-1.19a5,5,0,0,0-.48-1.13l-.14.27-.41,3.52v.45L199.3,144a1.7,1.7,0,0,0-.07.51c0,.19,0,.37,0,.55s0,.36-.07.51a.5.5,0,0,1-.26.35,2.05,2.05,0,0,0-.41.12l-.48.15-.41.1a1.61,1.61,0,0,1-.34.07h-4.07l-.31-.17a1.8,1.8,0,0,1,0-.31v-.41a11.48,11.48,0,0,1,.36-2.85,25.79,25.79,0,0,0,.56-2.86c0-.13.07-.47.14-1s.14-1.13.22-1.76.16-1.26.22-1.87.13-1.06.18-1.38c0,0,0-.16,0-.33s0-.35,0-.54,0-.38,0-.55,0-.28,0-.32a6.18,6.18,0,0,1,.24-1.18,5.6,5.6,0,0,0,.2-1.18v-1.3a1,1,0,0,1,.14-.31,1.92,1.92,0,0,1,.17-.27,13.93,13.93,0,0,0,.27-1.54c.07-.57.13-1.08.17-1.54,0,0,0-.19,0-.43a1.49,1.49,0,0,1,0-.42.34.34,0,0,1,.07-.17.33.33,0,0,0,.07-.14,5,5,0,0,0,.19-1.2,12,12,0,0,1,.12-1.3c0-.09,0-.24,0-.44s.05-.43.09-.67.07-.46.1-.66a2.44,2.44,0,0,1,.09-.41.74.74,0,0,1,.36-.47,3.56,3.56,0,0,1,1.36-.51,5.15,5.15,0,0,1,.6,0h3.79l.07.07.07.07a2.89,2.89,0,0,1,.27.48,1.43,1.43,0,0,1,.18.41.87.87,0,0,0,0,.25c0,.13.07.26.1.4s.06.27.08.41a.77.77,0,0,0,.07.23,1.09,1.09,0,0,0,.28.45,4.65,4.65,0,0,0,.17,1.26,13.35,13.35,0,0,0,.41,1.32l.48,1.32c.16.43.29.84.41,1.23a.52.52,0,0,1,.15.13l.15.17a1.26,1.26,0,0,1,.09.36c0,.2,0,.32,0,.36s.12.32.22.62.17.48.19.54a.57.57,0,0,1,.17.21,1.9,1.9,0,0,1,.14.24.45.45,0,0,1,.1.22c0,.1,0,.17,0,.19l.51,1c.25.48.5,1,.77,1.52s.5,1,.73,1.5l.48,1,.15.37c.08.21.14.33.16.38a.79.79,0,0,0,.05.15.56.56,0,0,0,.08.16,2.12,2.12,0,0,0,.4-1,4.2,4.2,0,0,1,.22-1,.37.37,0,0,1,.07-.16.75.75,0,0,0,.07-.15.52.52,0,0,0,.06-.21,1,1,0,0,0,0-.23c.27-.87.53-1.77.77-2.69s.48-1.84.73-2.75c0,0,0-.19.05-.43a2.42,2.42,0,0,1,.09-.42.93.93,0,0,1,.07-.24c0-.14.09-.28.13-.43l.14-.41.1-.26a3,3,0,0,1,.06-.36c0-.19,0-.31,0-.35a2.94,2.94,0,0,0,.25-.45,1.82,1.82,0,0,0,.19-.44l.12-.33.19-.55.19-.54a1.73,1.73,0,0,1,.12-.33,1.2,1.2,0,0,1,.1-.32l.24-.55.25-.55.16-.32a.9.9,0,0,1,.07-.22c0-.13.09-.25.13-.38l.14-.36c.05-.11.08-.19.1-.24a.58.58,0,0,1,.1-.15c.07-.08.12-.12.14-.12a7.81,7.81,0,0,1,1.59-.17h3.4a1.08,1.08,0,0,1,.75.44,4.32,4.32,0,0,1,.45.76l.58,1.74a1.44,1.44,0,0,0,0,.24,3.1,3.1,0,0,1,.1.36,2.49,2.49,0,0,1,.09.37.46.46,0,0,0,.07.23,1.5,1.5,0,0,0,.12.27,1.5,1.5,0,0,1,.12.27,2.52,2.52,0,0,1,0,.53c0,.29,0,.46,0,.53a17.75,17.75,0,0,0,.68,3.44,30.57,30.57,0,0,1,.82,3.43s0,.13,0,.26,0,.25,0,.39,0,.27.05.41,0,.22,0,.24a2.23,2.23,0,0,0,0,.43c0,.19.07.39.1.58s.06.38.09.55a1.35,1.35,0,0,0,.06.32c.32,1.8.6,3.59.82,5.37a41.86,41.86,0,0,1,.35,5.4v2.15l-.74,0-1.11.09-1.09.09-.72.06H221a2.55,2.55,0,0,1-.68-.12,1.53,1.53,0,0,1-.56-.31A1.16,1.16,0,0,1,219.36,145.56Z" transform="translate(-158.97 -115.8)" style="fill:#1d1d1b"/><path d="M253.58,146.31c0-.3-.05-.76-.07-1.38s0-1.33-.09-2.11-.06-1.59-.1-2.44-.06-1.67-.08-2.44-.05-1.48-.07-2.11,0-1.08,0-1.38v-.85c0-.51,0-1.08,0-1.71s0-1.28,0-1.92v-2.7c0-.57,0-1.17,0-1.81s0-1.24,0-1.81v-1.2a3.32,3.32,0,0,0,.09-.58c0-.29.05-.49.05-.58s0-.37,0-.7,0-.68,0-1.06,0-.73,0-1.06,0-.56,0-.7a2,2,0,0,1,.55-.15l.51,0h.55c.16,0,.44,0,.85.05l1.28,0c.45,0,.87,0,1.27,0s.68,0,.84,0a4.84,4.84,0,0,1,.83.94,11.9,11.9,0,0,1,.72,1.2q.33.63.63,1.26a11,11,0,0,0,.62,1.11,2.35,2.35,0,0,0,.24.43c.13.22.28.44.42.68s.29.47.41.69a3,3,0,0,0,.26.39,3.19,3.19,0,0,0,.16.31c.07.16.16.33.25.53l.26.53c.08.16.14.25.19.27l.71.72a2.75,2.75,0,0,1,.14.31c.07.16.12.25.17.27a2,2,0,0,0,.17.26c.09.12.2.26.33.41l.34.41a2.05,2.05,0,0,0,.19.22,1,1,0,0,1,.15.24,1.36,1.36,0,0,0,.12.2s.09.16.19.34.21.38.34.59.23.39.32.56a1.21,1.21,0,0,0,.21.32l.2.26.24.29a.69.69,0,0,0,.29.24.52.52,0,0,1,.26.21,1.63,1.63,0,0,1,.24.37c.11.21.18.33.2.38l.28.27a1.53,1.53,0,0,0,.31.27,1.22,1.22,0,0,0,.17.24l.29.36c.1.13.2.25.29.38l.17.22.12.15.12.16a2,2,0,0,0,.1-.58,6.13,6.13,0,0,1,.07-.62v-.41q0-1.29-.12-2.58c-.08-.85-.18-1.7-.29-2.55v-9.67a1.73,1.73,0,0,1,.05-.31.4.4,0,0,1,.19-.27H271a3.47,3.47,0,0,0,.44,0H273a2.88,2.88,0,0,0,.41,0h.22l.46,0,.72,0,.71.05a3.62,3.62,0,0,0,.47,0,1.32,1.32,0,0,1,.37.41,2.09,2.09,0,0,1,.21.53,3.68,3.68,0,0,1,.08.58c0,.19,0,.37.05.53q0,.51.09,1.5c0,.66.07,1.35.1,2.05s.06,1.35.09,1.92,0,.93,0,1.09,0,.7,0,1.27,0,1.2,0,1.91v4.51c0,.71,0,1.35,0,1.91s0,1,0,1.27c.09.64.14,1.21.16,1.71s0,1.08,0,1.74c0,.12,0,.27,0,.46a5.62,5.62,0,0,0,0,.57c0,.18,0,.34,0,.49s0,.24,0,.26,0,.32,0,.61,0,.61,0,.94,0,.64,0,.93,0,.48,0,.6l-.77.08-1.21.1-1.21.09-.77,0h-1.92a1.12,1.12,0,0,1-.58-.41c-.16-.2-.29-.4-.41-.58l-2.25-3.67q-1.14-1.83-2.43-3.51a3.78,3.78,0,0,1-.38-.44c-.18-.23-.31-.38-.37-.44l-.28-.31c-.13-.16-.28-.33-.44-.5l-.46-.49a2.17,2.17,0,0,1-.26-.31A3,3,0,0,1,263,135l-.36-.6c-.12-.22-.25-.42-.37-.62a2.54,2.54,0,0,1-.23-.39s-.11-.19-.27-.43a2.69,2.69,0,0,0-.31-.42l-.29-.5-.46-.82-.46-.82a5.13,5.13,0,0,1-.26-.5,1.67,1.67,0,0,1-.15-.22l-.15-.22a2,2,0,0,1-.07.22,1.06,1.06,0,0,0-.07.22v.31c.07,1.57.11,3.14.14,4.68s.08,3.11.17,4.69c0,0,0,.15,0,.32s0,.36.06.55,0,.37.05.55,0,.27,0,.32v3.79a1.6,1.6,0,0,1,.17.76s0,.07,0,.08a.14.14,0,0,0,0,.09v.1s0,.05-.12.09a.47.47,0,0,0-.15.08,6.64,6.64,0,0,1-1.56.15h-3.74l-.5,0Z" transform="translate(-158.97 -115.8)" style="fill:#1d1d1b"/><path d="M282.7,128.54a15.31,15.31,0,0,1,.72-2.63c.32-.87.67-1.74,1.06-2.6a10.34,10.34,0,0,1,.54-1.18,5.45,5.45,0,0,1,.76-1l1.29-1.37a17.63,17.63,0,0,1,1.42-1.33,12.78,12.78,0,0,1,1.54-1.11,6.32,6.32,0,0,1,1.73-.74c.59-.15,1.21-.31,1.86-.46a13.62,13.62,0,0,1,2.22-.29,24,24,0,0,1,2.89.05,32.78,32.78,0,0,1,3.9.57.75.75,0,0,1,.2.07.89.89,0,0,0,.24.06l.27.14.43.21a3.48,3.48,0,0,1,.43.22,1.38,1.38,0,0,0,.31.15.63.63,0,0,1,.17.45v1c-.05.12-.12.33-.23.63s-.2.64-.3,1l-.31,1c-.1.31-.18.52-.22.63s-.08.17-.16.36a.76.76,0,0,1-.29.4h-1a2.1,2.1,0,0,1-.37-.09c-.21-.06-.43-.11-.65-.15l-.65-.14-.38-.07h-.65a3.93,3.93,0,0,0-.49,0h-.4a15.11,15.11,0,0,0-2.58.19,6.2,6.2,0,0,0-2,.68,5.66,5.66,0,0,0-1.64,1.35,12.39,12.39,0,0,0-1.46,2.19,14.05,14.05,0,0,0-.94,2,6.13,6.13,0,0,0-.39,2.17c0,.48,0,.89,0,1.24a7.69,7.69,0,0,0,.14,1,9.6,9.6,0,0,0,.27,1q.18.49.45,1.11a17,17,0,0,0,1.28,2.32,6.55,6.55,0,0,0,1.54,1.64,6.12,6.12,0,0,0,2,1,9.94,9.94,0,0,0,2.66.32,6.56,6.56,0,0,0,1.49-.14,8.9,8.9,0,0,0,1.45-.47l.46-.23.4-.18,1-1a2.42,2.42,0,0,0,.57-1.23,8.45,8.45,0,0,0,.12-1.4c-.62,0-1.23,0-1.85.07s-1.22.07-1.81.07h-1.61a1,1,0,0,1-.41-.72V133c0-.2,0-.46.05-.75s.07-.59.11-.87.06-.53.08-.72.05-.29.07-.29l.31-.17c.59,0,1.13-.05,1.6-.09l1.61-.08,1.8-.09,1.72-.1,1.44-.09h1.3a.86.86,0,0,1,.58.35,2.53,2.53,0,0,1,.39.73,7,7,0,0,1,.24.87q.09.45.12.69c0,.11.05.3.1.56a3.84,3.84,0,0,1,.07.46v1a13.65,13.65,0,0,1-.53,3.84,18.93,18.93,0,0,1-1.52,3.64,8.3,8.3,0,0,1-1,1.32,7.87,7.87,0,0,1-1.35,1.21,8.08,8.08,0,0,1-1.58.91,4.22,4.22,0,0,1-1.66.36,33.94,33.94,0,0,1-6.22,0,11.65,11.65,0,0,1-3.15-.65l-.34-.14c-.18-.06-.38-.15-.6-.25s-.43-.2-.65-.29l-.46-.21a4,4,0,0,1-1-.56,6.1,6.1,0,0,1-.89-.74c-.07-.07-.24-.22-.5-.48l-.84-.8c-.29-.28-.58-.57-.85-.85s-.47-.5-.58-.64a1.57,1.57,0,0,1-.22-.29c-.11-.14-.18-.24-.23-.29s-.13-.23-.25-.49-.27-.55-.43-.86-.31-.61-.46-.9-.26-.53-.33-.69a9.16,9.16,0,0,1-.85-2.9,26.91,26.91,0,0,1-.17-3Z" transform="translate(-158.97 -115.8)" style="fill:#1d1d1b"/><path d="M325.7,139.92a14.23,14.23,0,0,1,.36-3.18,14.22,14.22,0,0,0,.35-3.18v-.34c0-.3,0-.75,0-1.35s0-1.29,0-2.05-.05-1.57-.07-2.43,0-1.66-.07-2.42,0-1.46,0-2.07,0-1.07,0-1.37l.14-2.77a1,1,0,0,1,.07-.31.41.41,0,0,1,.24-.27h2.32l.33,0c.17,0,.35,0,.54,0l.55,0,.32,0h1.4l1.1,0h1.57l1,0h1.66c.66.07,1.32.17,2,.29a9.2,9.2,0,0,1,1.93.6.39.39,0,0,1,.3.11,25.35,25.35,0,0,1,2.4,1.69,19.78,19.78,0,0,1,2.15,2,5.68,5.68,0,0,1,1.2,1.84,17.56,17.56,0,0,1,.68,2.09c.05.13.11.33.19.6s.16.53.24.82.15.54.22.76a2,2,0,0,1,.1.45,3.66,3.66,0,0,1,.11.84,1.55,1.55,0,0,0,.2.77v2.18a.61.61,0,0,0,.07.23.75.75,0,0,1,.07.22v.13a.73.73,0,0,1-.07.17l-.07.14c0,.07-.06.18-.1.33a1,1,0,0,0-.07.29v1.12a.37.37,0,0,1-.07.16.41.41,0,0,0-.07.15,2.21,2.21,0,0,1-.07.38,3,3,0,0,0-.06.37l-.26.72c-.13.34-.26.71-.39,1.1s-.27.75-.4,1.09-.21.58-.25.72a9.27,9.27,0,0,0-.87,1.25,7.5,7.5,0,0,1-.94,1.24,6.57,6.57,0,0,1-1.61,1.39l-1.88,1.11-.17.08a.33.33,0,0,1-.14.05s-.09,0-.2,0l-.24,0-2.07.36a16.35,16.35,0,0,1-2.17.26H332.7l-.54,0-.93.05-.92,0-.55,0h-3l-.22.1c-.1,0-.18,0-.22,0s0,0-.09-.09a.3.3,0,0,1-.05-.15,2.12,2.12,0,0,1-.08-.41q-.06-.34-.09-.48c-.11-.86-.19-1.75-.22-2.67S325.7,140.79,325.7,139.92Zm7.45-.51c0,.16.05.34.08.56a.52.52,0,0,0,.36.43h.31l.31,0,.29,0h.25c.14,0,.37,0,.69,0l1-.08,1-.09a5.5,5.5,0,0,0,.69-.07q5.75-1.53,5.74-7.52a8.19,8.19,0,0,0-.39-2.37,9.63,9.63,0,0,0-1-2.24l-.32-.34-.48-.5-.5-.48-.34-.32a4.21,4.21,0,0,1-.46-.24,3.59,3.59,0,0,0-.67-.31,5.77,5.77,0,0,0-.8-.32l-.8-.26-.94,0-1.42-.1-1.42-.1q-.66-.06-.9-.06h-.89c0,.12,0,.33,0,.65s0,.66,0,1,0,.71-.05,1,0,.55,0,.69v.41l.75,9.36Z" transform="translate(-158.97 -115.8)" style="fill:#1d1d1b"/><path d="M350.92,145.7a.17.17,0,0,1-.14-.18v-.23a1.07,1.07,0,0,1,.24-.6,2.78,2.78,0,0,0,.35-.6c0-.07.06-.2.13-.39s.15-.41.23-.65.15-.46.22-.65.11-.33.13-.4.07-.17.12-.3l.19-.45.19-.43a.66.66,0,0,0,.08-.25.87.87,0,0,0,.14-.21c.07-.11.14-.24.21-.37a3,3,0,0,1,.19-.36.66.66,0,0,0,.08-.22,7.83,7.83,0,0,1,.27-.76l.52-1.31c.18-.47.35-.9.51-1.3s.26-.66.31-.77.14-.28.29-.56.24-.48.29-.57L361,118.93a1.47,1.47,0,0,0,.12-.25l.18-.4c.05-.13.11-.26.17-.39l.12-.29.17-.17h1l.69,0c.36,0,.76,0,1.19.05s.83,0,1.2.06l.72,0,.44,0a.63.63,0,0,1,.44.16,2,2,0,0,1,.48.47c.14.19.26.37.38.55l.27.45q.18.27.33.54c.1.19.2.35.29.5a1.74,1.74,0,0,0,.17.25c.07.16.18.41.34.74l.5,1c.17.37.32.7.46,1s.23.49.27.58l.14.43c.07.22.15.45.24.7s.17.49.24.7.11.36.13.43a24.48,24.48,0,0,0,1.58,3.5,35.38,35.38,0,0,1,1.64,3.47q.06.21.3.84l.57,1.49c.21.57.44,1.17.66,1.81s.45,1.24.67,1.79.4,1.05.56,1.46.27.68.31.82a4.74,4.74,0,0,0,.28.63c.15.33.26.55.3.66s.13.28.24.5.23.45.35.7a7.62,7.62,0,0,0,.34.7l.24.46v.14a.38.38,0,0,1-.14.29,1.06,1.06,0,0,1-.33.19,2.22,2.22,0,0,1-.39.1l-.31,0h-2.76a3.38,3.38,0,0,0-1,.15,3.58,3.58,0,0,1-1,.15h-.45a2.15,2.15,0,0,1-.47-.16l-.07-.07-.07-.06c-.21-.39-.36-.71-.46-.94s-.25-.57-.43-1a1.58,1.58,0,0,1-.24-.44l-.2-.45a4.69,4.69,0,0,1-.24-1.13,2.16,2.16,0,0,0-.48-1,.33.33,0,0,0-.14-.09.45.45,0,0,0-.17-.05c-.18,0-.48,0-.91,0l-1.35-.05-1.36,0-.93,0-.29,0-.49,0-.51-.05-.28,0h-.65c-.64,0-1.27,0-1.89.07a16.77,16.77,0,0,0-1.87.24,1.12,1.12,0,0,0-.83.53c-.18.28-.34.59-.5.9,0,.07-.07.2-.14.38s-.14.37-.22.56l-.22.53-.14.31-.12.33c-.05.17-.12.35-.19.54s-.13.38-.18.55a1.47,1.47,0,0,0-.09.32c-.18.46-.39.7-.61.72s-.56,0-1,0a9.1,9.1,0,0,1-2.29-.29A9,9,0,0,0,350.92,145.7Zm13.91-18.91a.76.76,0,0,0-.08.16.4.4,0,0,0-.05.15.93.93,0,0,1-.07.24l-.16.36-.15.38a.9.9,0,0,0-.07.22,1.47,1.47,0,0,0-.12.22l-.19.41c-.06.15-.13.29-.18.43a2.44,2.44,0,0,1-.12.24c-.12.27-.25.63-.41,1.09s-.32.91-.48,1.35-.34,1-.55,1.62V134h5.57s.07,0,.14-.12l.17-.19v-.13a1.82,1.82,0,0,0-.17-.67q-.18-.39-.27-.63c-.21-.39-.46-.88-.76-1.47s-.58-1.17-.87-1.73-.63-1.24-1-2.07Z" transform="translate(-158.97 -115.8)" style="fill:#1d1d1b"/><path d="M386.13,142a17.43,17.43,0,0,1,.1-1.93,17.31,17.31,0,0,0,.1-1.93v-.37c0-.1,0-.28-.07-.57s0-.58-.06-.89-.05-.6-.07-.87a5.7,5.7,0,0,1,0-.58v-1.42c0-.44,0-.9,0-1.38s0-.93,0-1.34,0-.68,0-.82,0-.45,0-.87-.05-.87-.08-1.35-.07-.94-.11-1.38-.05-.76-.05-.94-.06-.34-.1-.55-.1-.41-.17-.61a1.58,1.58,0,0,0-.29-.53.72.72,0,0,0-.5-.26l-.48,0-.71,0-.71,0h-.63l-.36,0-.37,0-.22,0h-.11c-.52,0-.78-.28-.78-.85v-5.13l.13-.14,2.16-.07,2.17-.06c.81,0,1.62,0,2.44-.06s1.61,0,2.38,0,1.42,0,2-.07h5c.18.07.32.31.4.71a11.33,11.33,0,0,1,.17,1.31c0,.48.05.94.05,1.39v1.4a3.43,3.43,0,0,1-.05.56.91.91,0,0,1-.23.46.58.58,0,0,1-.47.19l-.57,0c-.26,0-.54,0-.84.06s-.57,0-.83,0l-.57,0-.49,0a1.22,1.22,0,0,0-.5.1.4.4,0,0,0-.15,0l-.16,0v.68c0,.32,0,.65,0,1s0,.68,0,1v.68q0,3.69.33,7.35t.32,7.38v2.15c0,.14,0,.31,0,.52s0,.41-.06.61,0,.46-.08.75l-.14.18-1.31.05c-.36,0-.73,0-1.11.05l-1,0h-2.6l-.31-.31s0-.09-.05-.27,0-.4,0-.65,0-.51,0-.77,0-.47,0-.63,0-.19,0-.5S386.13,142.16,386.13,142Z" transform="translate(-158.97 -115.8)" style="fill:#1d1d1b"/><path d="M398.67,145.7a.17.17,0,0,1-.14-.18v-.23a1,1,0,0,1,.24-.6,2.78,2.78,0,0,0,.35-.6c0-.07.06-.2.13-.39l.22-.65c.08-.24.16-.46.23-.65s.11-.33.13-.4.07-.17.12-.3l.19-.45.19-.43a.66.66,0,0,0,.08-.25.87.87,0,0,0,.14-.21c.07-.11.14-.24.21-.37a3,3,0,0,1,.19-.36.66.66,0,0,0,.08-.22,7.83,7.83,0,0,1,.27-.76l.52-1.31c.18-.47.35-.9.51-1.3s.26-.66.31-.77.14-.28.29-.56.24-.48.29-.57l5.53-15.21a1.47,1.47,0,0,0,.12-.25c.06-.13.12-.26.17-.4l.18-.39.12-.29.17-.17h1l.69,0c.36,0,.76,0,1.19.05s.83,0,1.2.06l.72,0,.44,0a.65.65,0,0,1,.44.16,2,2,0,0,1,.48.47c.14.19.26.37.38.55l.27.45c.12.18.22.36.33.54s.2.35.29.5a1.74,1.74,0,0,0,.17.25c.07.16.18.41.34.74s.32.68.5,1,.32.7.46,1,.23.49.27.58l.14.43c.07.22.15.45.24.7s.17.49.24.7.11.36.13.43a24.48,24.48,0,0,0,1.58,3.5,35.38,35.38,0,0,1,1.64,3.47q.06.21.3.84l.57,1.49c.21.57.44,1.17.66,1.81s.45,1.24.67,1.79.4,1.05.56,1.46.27.68.31.82a4.74,4.74,0,0,0,.28.63c.15.33.26.55.3.66s.13.28.24.5.23.45.34.7.23.49.35.7l.24.46v.14a.38.38,0,0,1-.14.29,1.06,1.06,0,0,1-.33.19,2.22,2.22,0,0,1-.39.1l-.31,0h-2.77a3.37,3.37,0,0,0-1,.15,3.58,3.58,0,0,1-1,.15h-.45a2.15,2.15,0,0,1-.47-.16l-.07-.07-.07-.06c-.21-.39-.36-.71-.46-.94s-.25-.57-.43-1a1.58,1.58,0,0,1-.24-.44l-.2-.45a4.69,4.69,0,0,1-.24-1.13,2.16,2.16,0,0,0-.48-1,.42.42,0,0,0-.14-.09.51.51,0,0,0-.17-.05c-.18,0-.48,0-.91,0l-1.35-.05-1.36,0-.93,0-.29,0-.49,0-.51-.05-.28,0h-.65c-.64,0-1.27,0-1.9.07a16.9,16.9,0,0,0-1.86.24,1.12,1.12,0,0,0-.83.53c-.18.28-.34.59-.5.9,0,.07-.07.2-.14.38s-.14.37-.22.56l-.22.53-.14.31-.12.33c-.05.17-.12.35-.19.54s-.13.38-.18.55a1.47,1.47,0,0,0-.09.32c-.18.46-.39.7-.61.72s-.56,0-1,0a9.1,9.1,0,0,1-2.29-.29A9,9,0,0,0,398.67,145.7Zm13.91-18.91a.76.76,0,0,0-.08.16.4.4,0,0,0-.05.15.93.93,0,0,1-.07.24l-.16.36-.15.38a.9.9,0,0,0-.07.22,1.47,1.47,0,0,0-.12.22l-.19.41c-.06.15-.13.29-.18.43a2.44,2.44,0,0,1-.12.24c-.12.27-.25.63-.41,1.09s-.32.91-.48,1.35-.34,1-.55,1.62V134h5.57s.07,0,.14-.12l.17-.19v-.13a1.82,1.82,0,0,0-.17-.67q-.18-.39-.27-.63c-.21-.39-.46-.88-.76-1.47s-.58-1.17-.87-1.73-.63-1.24-1-2.07Z" transform="translate(-158.97 -115.8)" style="fill:#1d1d1b"/><path d="M228,137.09a12,12,0,0,1,1.66-4.12,9.87,9.87,0,0,1,2.79-2.82,11.83,11.83,0,0,1,3.67-1.62,17.42,17.42,0,0,1,4.36-.53h1a8.66,8.66,0,0,1,3.8,1.28,9.55,9.55,0,0,1,2.68,2.62,11.66,11.66,0,0,1,1.61,3.52,15.3,15.3,0,0,1,.53,4c0,.7,0,1.41-.07,2.12s-.13,1.41-.24,2.11a7.42,7.42,0,0,1-.92,2.5,19.83,19.83,0,0,1-1.58,2.19,5.48,5.48,0,0,1-1,.87,10.89,10.89,0,0,1-1.35.79,12.88,12.88,0,0,1-1.47.59,4.3,4.3,0,0,1-1.31.24h-1.58a20.61,20.61,0,0,1-2.58-.15c-.78-.1-1.64-.25-2.58-.43a.59.59,0,0,0-.2-.08l-.24-.09-.34-.14a4.88,4.88,0,0,1-.53-.25l-.53-.29a2.76,2.76,0,0,1-.34-.21l-.24-.12a.56.56,0,0,1-.21-.12l-.46-.46c-.22-.22-.44-.45-.68-.72s-.48-.5-.7-.71-.39-.37-.48-.47a7.36,7.36,0,0,1-1.22-1.69,9.07,9.07,0,0,1-.76-2,12.81,12.81,0,0,1-.4-2,17.92,17.92,0,0,1-.12-2.06Zm6.57,1.37v.87a2.59,2.59,0,0,0,.17.84l.12.39a6.46,6.46,0,0,0,.2.63c.08.23.15.46.22.69a4.48,4.48,0,0,0,.17.48.29.29,0,0,1,.09.13.51.51,0,0,0,.08.14c0,.07.14.17.26.31l.39.41.4.39a1.14,1.14,0,0,0,.25.22,1,1,0,0,1,.33.17l.43.28a2.8,2.8,0,0,0,.78.32,3.72,3.72,0,0,0,.86.09,5.21,5.21,0,0,0,2.95-.77,5.11,5.11,0,0,0,1.83-2.45,4.14,4.14,0,0,0,.29-1.47c0-.52,0-1,0-1.5,0,0,0-.12,0-.22s0-.17,0-.19a4.59,4.59,0,0,0-1.23-2.51,6.89,6.89,0,0,0-2.39-1.56,1.91,1.91,0,0,0-.77-.17h-.77a4.81,4.81,0,0,0-3.4,1.15A4.29,4.29,0,0,0,234.53,138.46Z" transform="translate(-158.97 -115.8)" style="fill:#05f"/></svg>