<svg xmlns="http://www.w3.org/2000/svg" xmlns:xlink="http://www.w3.org/1999/xlink" viewBox="0 0 1312 400"><defs><style>.cls-1,.cls-6{font-size:40px;fill:#00aeef;}.cls-1,.cls-15,.cls-6,.cls-8{font-family:Messapia-Bold, Messapia;font-weight:700;}.cls-2{letter-spacing:-0.06em;}.cls-3{letter-spacing:0em;}.cls-4,.cls-6{letter-spacing:-0.03em;}.cls-5{letter-spacing:-0.01em;}.cls-7{letter-spacing:0em;}.cls-8{font-size:17px;}.cls-9{letter-spacing:-0.02em;}.cls-10{letter-spacing:-0.02em;}.cls-11{letter-spacing:-0.01em;}.cls-12{letter-spacing:-0.01em;}.cls-13{letter-spacing:-0.02em;}.cls-14{letter-spacing:-0.01em;}.cls-15{font-size:14px;}.cls-16{letter-spacing:0.04em;}.cls-17{letter-spacing:0em;}.cls-18{letter-spacing:0em;}.cls-19{letter-spacing:0.01em;}.cls-20{letter-spacing:0em;}.cls-21{letter-spacing:-0.03em;}.cls-22{letter-spacing:-0.01em;}.cls-23{letter-spacing:-0.01em;}.cls-24{letter-spacing:0em;}.cls-25{letter-spacing:-0.01em;}.cls-26{letter-spacing:-0.01em;}.cls-27{letter-spacing:-0.01em;}.cls-28{letter-spacing:-0.03em;}.cls-29{letter-spacing:-0.02em;}.cls-30{letter-spacing:0em;}.cls-31{letter-spacing:-0.01em;}.cls-32{letter-spacing:-0.16em;}.cls-33{letter-spacing:-0.01em;}.cls-34{letter-spacing:-0.02em;}.cls-35{letter-spacing:-0.02em;}.cls-36{letter-spacing:-0.01em;}.cls-37{letter-spacing:0em;}.cls-38{letter-spacing:-0.1em;}.cls-39{letter-spacing:-0.01em;}.cls-40{letter-spacing:-0.01em;}.cls-41{letter-spacing:0em;}.cls-42{letter-spacing:0em;}.cls-43{letter-spacing:0em;}.cls-44{letter-spacing:-0.03em;}.cls-45{letter-spacing:-0.03em;}.cls-46{letter-spacing:0.02em;}.cls-47{letter-spacing:-0.01em;}.cls-48{letter-spacing:-0.03em;}.cls-49{letter-spacing:0.01em;}.cls-50{letter-spacing:0.01em;}.cls-51,.cls-53{fill:#ff101f;}.cls-52,.cls-56{fill:none;stroke:#ff101f;}.cls-52,.cls-56,.cls-57{stroke-miterlimit:10;}.cls-53,.cls-54{fill-rule:evenodd;}.cls-54,.cls-55{fill:#fff;}.cls-56{stroke-width:2px;}.cls-57{stroke:#000;fill:url(#Sfumatura_senza_nome_11);}</style><linearGradient id="Sfumatura_senza_nome_11" x1="56.15" y1="92.97" x2="1243.21" y2="92.97" gradientUnits="userSpaceOnUse"><stop offset="0" stop-color="#ff101f"/><stop offset="0.09" stop-color="#ff1a28"/><stop offset="0.24" stop-color="#ff3542"/><stop offset="0.44" stop-color="#ff626b"/><stop offset="0.68" stop-color="#ff9fa5"/><stop offset="0.94" stop-color="#ffeced"/><stop offset="1" stop-color="#fff"/></linearGradient></defs><g id="Livello_3" data-name="Livello 3"><text class="cls-1" transform="translate(49.54 176.14)"><tspan class="cls-2">1</tspan><tspan class="cls-3" x="22.8" y="0">9</tspan><tspan x="62.96" y="0">3</tspan></text><text class="cls-1" transform="translate(206.04 176.14)"><tspan class="cls-4">1</tspan><tspan class="cls-5" x="23.76" y="0">1</tspan><tspan x="48.4" y="0">4</tspan></text><text class="cls-6" transform="translate(346.26 176.72)">1<tspan class="cls-7" x="23.76" y="0">12</tspan></text><text class="cls-1" transform="translate(488.48 176.62)">70</text><text class="cls-1" transform="translate(622.46 176.62)">54</text><text class="cls-1" transform="translate(1165.94 176.81)">42</text></g><g id="Livello_4" data-name="Livello 4"><text class="cls-8" transform="translate(63.87 310.86)"><tspan class="cls-9">I</tspan><tspan class="cls-10" x="5.27" y="0">t</tspan><tspan class="cls-11" x="15.79" y="0">un</tspan><tspan class="cls-12" x="46.8" y="0">e</tspan><tspan x="61.64" y="0">s</tspan></text><text class="cls-8" transform="translate(56.15 67.03)">M<tspan class="cls-11" x="21.25" y="0">i</tspan><tspan class="cls-13" x="26.89" y="0">n</tspan><tspan class="cls-9" x="42.57" y="0">u</tspan><tspan class="cls-14" x="57.49" y="0">t</tspan><tspan class="cls-12" x="68.07" y="0">e</tspan><tspan x="82.91" y="0">s</tspan></text><text class="cls-1" transform="translate(762.47 176.62)">53</text><text class="cls-1" transform="translate(898.63 176.62)">52</text><text class="cls-1" transform="translate(1036.65 176.62)">46</text><text class="cls-15" transform="translate(218.16 311.47)">Sk<tspan class="cls-16" x="26.77" y="0">y</tspan><tspan class="cls-17" x="39.14" y="0">p</tspan><tspan class="cls-18" x="51.35" y="0">e</tspan></text><text class="cls-15" transform="translate(354.62 311.47)"><tspan class="cls-19">S</tspan><tspan class="cls-20" x="14.62" y="0">p</tspan><tspan class="cls-21" x="26.82" y="0">o</tspan><tspan class="cls-22" x="39" y="0">t</tspan><tspan class="cls-23" x="47.85" y="0">i</tspan><tspan x="52.44" y="0">fy</tspan></text><text class="cls-15" transform="translate(479.85 310.86)"><tspan class="cls-24">I</tspan><tspan class="cls-25" x="4.59" y="0">n</tspan><tspan class="cls-26" x="17.54" y="0">s</tspan><tspan class="cls-27" x="29.19" y="0">t</tspan><tspan class="cls-22" x="38" y="0">a</tspan><tspan class="cls-26" x="50.46" y="0">g</tspan><tspan class="cls-28" x="62.13" y="0">r</tspan><tspan class="cls-22" x="70.55" y="0">a</tspan><tspan x="83.01" y="0">m</tspan></text><text class="cls-15" transform="translate(627.94 311.15)">T<tspan class="cls-25" x="13.58" y="0">w</tspan><tspan class="cls-29" x="31.33" y="0">i</tspan><tspan class="cls-30" x="35.78" y="0">t</tspan><tspan class="cls-31" x="44.69" y="0">t</tspan><tspan class="cls-26" x="53.4" y="0">e</tspan><tspan x="65.69" y="0">r</tspan></text><text class="cls-15" transform="translate(761.91 311.42)"><tspan class="cls-32">Y</tspan><tspan class="cls-33" x="13.16" y="0">o</tspan><tspan class="cls-34" x="25.59" y="0">u</tspan><tspan class="cls-35" x="37.88" y="0">t</tspan><tspan class="cls-36" x="46.55" y="0">u</tspan><tspan class="cls-37" x="59.04" y="0">b</tspan><tspan x="71.51" y="0">e</tspan></text><text class="cls-15" transform="translate(893.73 313.84)"><tspan class="cls-38">F</tspan><tspan class="cls-39" x="11.82" y="0">a</tspan><tspan class="cls-40" x="24.25" y="0">c</tspan><tspan class="cls-36" x="35.77" y="0">e</tspan><tspan class="cls-41" x="48.06" y="0">b</tspan><tspan x="60.54" y="0">o</tspan><tspan class="cls-42" x="73.08" y="0">o</tspan><tspan x="85.6" y="0">k</tspan></text><text class="cls-15" transform="translate(1176.76 310.56)"><tspan class="cls-43">N</tspan><tspan class="cls-44" x="15.2" y="0">e</tspan><tspan class="cls-45" x="27.19" y="0">t</tspan><tspan class="cls-29" x="35.76" y="0">f</tspan><tspan class="cls-36" x="44.35" y="0">l</tspan><tspan class="cls-46" x="48.86" y="0">i</tspan><tspan x="53.9" y="0">x</tspan></text><text class="cls-15" transform="translate(1032.49 311.15)"><tspan class="cls-29">W</tspan><tspan class="cls-47" x="19.67" y="0">h</tspan><tspan class="cls-48" x="32.61" y="0">a</tspan><tspan class="cls-25" x="44.72" y="0">t</tspan><tspan class="cls-18" x="53.45" y="0">s</tspan><tspan class="cls-49" x="65.18" y="0">A</tspan><tspan class="cls-50" x="79.46" y="0">p</tspan><tspan x="91.74" y="0">p</tspan></text><path class="cls-51" d="M108.28,223.21a13.83,13.83,0,0,0-1.38.19c-2.55.48-17.58,3.54-17.83,3.64a1.93,1.93,0,0,0-1,.89l-.16.32s-.07,22.74-.19,23a1.71,1.71,0,0,1-.92.88c-.17.06-.84.21-1.49.34-3,.62-4.14,1.06-5.09,2a4.42,4.42,0,0,0-1.11,2,5.52,5.52,0,0,0,.13,2.53,4.28,4.28,0,0,0,3,2.78,8.63,8.63,0,0,0,5.29-.82,6,6,0,0,0,1.63-1.58,7.19,7.19,0,0,0,.49-1c.43-1.14.44-21.52.5-21.77a1.09,1.09,0,0,1,.78-.87c.36-.09,14.83-3,15.24-3.08a.93.93,0,0,1,.92.35c.12.18.41,14.23,0,14.7s-.89.47-2.36.78a14.66,14.66,0,0,0-3.86,1.12,4.12,4.12,0,0,0-2.12,2.09,4,4,0,0,0-.45,1.89,4.14,4.14,0,0,0,1.35,3.12,3.93,3.93,0,0,0,2,1.18,9.71,9.71,0,0,0,4-.31,5.15,5.15,0,0,0,3.57-3.68,3.75,3.75,0,0,0,.16-1.1c0-4,0-28.54,0-28.73A1.18,1.18,0,0,0,108.28,223.21Z"/><path class="cls-52" d="M265.11,274.48a22.34,22.34,0,0,1-9.5-2.12,33.52,33.52,0,0,1-5.6.51,35.83,35.83,0,0,1-36-35.57,34.62,34.62,0,0,1,.57-6.05,21.66,21.66,0,0,1-2.48-10.05,22,22,0,0,1,22.08-21.8A22.28,22.28,0,0,1,245,202.17a40.1,40.1,0,0,1,5.06-.28,35.85,35.85,0,0,1,25.36,10.34,35,35,0,0,1,10.49,25.07,36.61,36.61,0,0,1-.53,6.62,21.27,21.27,0,0,1,1.85,8.75A22,22,0,0,1,265.11,274.48Z"/><path class="cls-51" d="M265.26,243.51a8.84,8.84,0,0,0-1-4.4,8.54,8.54,0,0,0-2.83-3,18.07,18.07,0,0,0-4.3-2c-1.66-.52-3.52-1-5.56-1.44-1.61-.37-2.78-.65-3.47-.85a10.74,10.74,0,0,1-2-.78,4.67,4.67,0,0,1-1.5-1.12,2.35,2.35,0,0,1-.61-1.46,3,3,0,0,1,1.67-2.39,7.9,7.9,0,0,1,4.35-1,7.24,7.24,0,0,1,4.2.9,8.16,8.16,0,0,1,2.25,2.78,8.06,8.06,0,0,0,1.5,2,3.23,3.23,0,0,0,2.17.64,3.45,3.45,0,0,0,2.58-1,3.58,3.58,0,0,0,1.16-2.41,6.27,6.27,0,0,0-.92-2.85,9,9,0,0,0-2.44-2.73,13,13,0,0,0-4.15-2.05,20,20,0,0,0-5.86-.77,21.32,21.32,0,0,0-7.37,1.15,10.63,10.63,0,0,0-4.88,3.37,8.15,8.15,0,0,0-1.8,5.05,7.85,7.85,0,0,0,1.72,5,10.77,10.77,0,0,0,4.32,3.13,36.82,36.82,0,0,0,6.58,2c1.91.4,3.47.78,4.61,1.14a6.71,6.71,0,0,1,2.68,1.47,3.08,3.08,0,0,1,1,2.36,3.71,3.71,0,0,1-1.9,3.12,11.65,11.65,0,0,1-8.71.66,5.53,5.53,0,0,1-2.11-1.61,12.52,12.52,0,0,1-1.44-2.55,5.7,5.7,0,0,0-1.47-2.14,3.43,3.43,0,0,0-2.22-.81,3.71,3.71,0,0,0-2.62,1,3.12,3.12,0,0,0-1,2.35,7.89,7.89,0,0,0,1.62,4.51,11.56,11.56,0,0,0,4.13,3.65,19.2,19.2,0,0,0,9,1.88,20.56,20.56,0,0,0,7.85-1.37,11.45,11.45,0,0,0,5.11-3.85A9.53,9.53,0,0,0,265.26,243.51Z"/><path class="cls-51" d="M374,253l.94,4.49c14.74-3.11,23.93.91,28.1,3.57l2.48-3.86A35.34,35.34,0,0,0,389.43,252,53,53,0,0,0,374,253Z"/><path class="cls-53" d="M1106.17,214.68a38.5,38.5,0,0,0-60.58,46.44l-5.46,19.95,20.4-5.35a38.38,38.38,0,0,0,18.4,4.68h0a38.51,38.51,0,0,0,27.23-65.72Z"/><path class="cls-54" d="M1078.94,278.44h0a36.61,36.61,0,0,1-18.59-5.09l-1.34-.8-13.82,3.63,3.69-13.48-.87-1.38a36.53,36.53,0,1,1,30.94,17.12Z"/><path class="cls-53" d="M1093.6,248.65c-.8-.4-4.75-2.34-5.48-2.61s-1.28-.4-1.81.4-2.07,2.61-2.54,3.15-.94.6-1.74.2a21.92,21.92,0,0,1-6.46-4,24,24,0,0,1-4.46-5.56c-.47-.8,0-1.19.35-1.63a23.48,23.48,0,0,0,2-2.75,1.51,1.51,0,0,0-.07-1.41c-.2-.4-1.81-4.35-2.48-6s-1.31-1.35-1.8-1.38-1,0-1.54,0a2.94,2.94,0,0,0-2.14,1,9,9,0,0,0-2.81,6.7c0,4,2.88,7.77,3.28,8.3s5.66,8.65,13.71,12.12a45.43,45.43,0,0,0,4.58,1.69,11,11,0,0,0,5,.32c1.54-.23,4.75-1.94,5.42-3.82a6.69,6.69,0,0,0,.47-3.81C1094.94,249.25,1094.4,249.05,1093.6,248.65Z"/><path class="cls-51" d="M1212,224.1V245l-9.78-20.85H1192v45.35l1.55-.25c2.58-.43,5.22-.74,7.84-.92l1.24-.08V248.37L1212,268.2l.79.05c2.77.18,5.55.5,8.28.95l1.55.25V224.1Z"/><path class="cls-55" d="M1200,265.73c-1.77.15-3.55.35-5.31.61V231.39l5.31,11.32Z"/><path class="cls-55" d="M1213.72,265.66l-18.26-38.9h5L1219,266.21C1217.26,266,1215.49,265.78,1213.72,265.66Z"/><polygon class="cls-55" points="1219.94 261.93 1214.63 250.61 1214.63 226.76 1219.94 226.76 1219.94 261.93"/><circle class="cls-52" cx="1207.32" cy="242.59" r="39.19"/><path class="cls-51" d="M392.35,229.45a72.3,72.3,0,0,0-24.43,2l1.15,4.45A67.43,67.43,0,0,1,391.93,234a52.43,52.43,0,0,1,21.77,6.69l2.34-3.94a56.75,56.75,0,0,0-23.69-7.31Z"/><path class="cls-51" d="M370.8,242.18l1.12,4.44a58.79,58.79,0,0,1,13.85-1.45c8.68.1,16.27,2.06,22.55,5.8l2.35-3.94c-17.1-10.19-37.59-5.43-39.87-4.85Z"/><circle class="cls-52" cx="390.96" cy="242.59" r="39.19"/><circle class="cls-52" cx="98.29" cy="242.59" r="39.19"/><path class="cls-51" d="M685.35,231.21l-2.65.13,1.44-4.11s-4.5,1.65-5.64,2a9,9,0,0,0-10.62-.86,7.35,7.35,0,0,0-3.54,7.57,19.65,19.65,0,0,1-12.71-7.16l-1.07-1.28-.8,1.46a8.84,8.84,0,0,0-.94,6,8.36,8.36,0,0,0,.83,2.32l-.92-.35-.11,1.53a8.49,8.49,0,0,0,2.47,6.17l-.48-.07.58,1.75a8.48,8.48,0,0,0,4.38,5.07c-2,.87-3.69,1.42-6.4,2.32l-2.48.81,2.29,1.25a23.69,23.69,0,0,0,7,2.55c6.77,1.07,14.41.2,19.54-4.43,4.33-3.89,5.75-9.44,5.46-15.21a3.55,3.55,0,0,1,.67-2.34C682.62,235,685.34,231.22,685.35,231.21Zm-5.5,3.67a5.85,5.85,0,0,0-1.12,3.82c.29,5.82-1.29,10.33-4.71,13.41-4,3.6-10.44,5-17.68,3.88a17.79,17.79,0,0,1-3.79-1.13,59.85,59.85,0,0,0,6.86-2.82l4-1.87-4.37-.28a6.17,6.17,0,0,1-4.91-2.8,7.86,7.86,0,0,0,1.67-.27l4.16-1.16-4.2-1A6.26,6.26,0,0,1,651.9,242a6.4,6.4,0,0,1-.83-1.83,9,9,0,0,0,1.7.27l3.89.39-3.08-2.4a6.48,6.48,0,0,1-2.45-6.84A22.52,22.52,0,0,0,667,238.4a15.37,15.37,0,0,0-.23-1.92,5.2,5.2,0,0,1,2.28-6.23,6.77,6.77,0,0,1,8,.66,2,2,0,0,0,1.86.5,15.93,15.93,0,0,0,1.54-.47l-1,2.79h1.25Z"/><circle class="cls-52" cx="664.39" cy="242.59" r="39.19"/><path class="cls-52" d="M936.4,206.15a37.75,37.75,0,0,0-6.3,75V251.8H921V241.25h9.11v-7.78c0-9,5.51-13.95,13.57-13.95a73.69,73.69,0,0,1,8.13.42v9.43h-5.59c-4.37,0-5.22,2.09-5.22,5.14v6.73h10.45l-1.36,10.55H941v29.58a37.75,37.75,0,0,0-4.59-75.22Z"/><circle class="cls-52" cx="527.67" cy="242.59" r="39.19"/><rect class="cls-56" x="511.16" y="227.16" width="33.04" height="33.04" rx="7.06"/><circle class="cls-52" cx="528.32" cy="243.68" r="6.74"/><circle class="cls-52" cx="535.3" cy="234.22" r="0.25"/><circle class="cls-52" cx="801.11" cy="242.59" r="39.19"/><rect class="cls-52" x="787.68" y="230.73" width="28.78" height="24.1" rx="5.15"/><path class="cls-51" d="M808,243.4c.7-.35.7-.91,0-1.25L799.7,238a.8.8,0,0,0-1.26.77v8a.8.8,0,0,0,1.26.78Z"/><rect class="cls-57" x="56.15" y="77.14" width="1187.06" height="31.66"/></g></svg>