<?xml version="1.0" encoding="utf-8"?>
<!-- Generator: Adobe Illustrator 25.1.0, SVG Export Plug-In . SVG Version: 6.00 Build 0)  -->
<svg version="1.1" id="Livello_1" xmlns="http://www.w3.org/2000/svg" xmlns:xlink="http://www.w3.org/1999/xlink" x="0px" y="0px"
	 viewBox="0 0 1366 768" style="enable-background:new 0 0 1366 768;" xml:space="preserve">
<style type="text/css">
	.st0{fill:#FF101F;}
	.st1{fill:#FF101F;stroke:#000000;stroke-miterlimit:10;}
	.st2{fill:#FFC914;}
	.st3{fill:#00AEEF;}
	.st4{fill:#49E303;}
	.st5{fill:#FFC914;stroke:#000000;stroke-miterlimit:10;}
	.st6{fill:none;stroke:#FFC914;stroke-miterlimit:10;}
	.st7{fill:none;stroke:#000000;stroke-miterlimit:10;}
	.st8{fill:#FFFFFF;stroke:#000000;stroke-miterlimit:10;}
	.st9{fill:none;}
	.st10{font-family:'Messapia-Bold';}
	.st11{font-size:20px;}
	.st12{fill:none;stroke:#FF101F;stroke-width:3;stroke-miterlimit:10;}
	.st13{fill:#FFFFFF;}
	.st14{fill:#FFFFFF;stroke:#FF101F;stroke-width:3;stroke-miterlimit:10;}
</style>
<path class="st0" d="M252,196H143c-4.4,0-8-3.6-8-8v0c0-4.4,3.6-8,8-8h109c4.4,0,8,3.6,8,8v0C260,192.4,256.4,196,252,196z"/>
<path class="st0" d="M252,214H143c-4.4,0-8-3.6-8-8v0c0-4.4,3.6-8,8-8h109c4.4,0,8,3.6,8,8v0C260,210.4,256.4,214,252,214z"/>
<path class="st0" d="M252,232H143c-4.4,0-8-3.6-8-8v0c0-4.4,3.6-8,8-8h109c4.4,0,8,3.6,8,8v0C260,228.4,256.4,232,252,232z"/>
<g>
	<rect x="295" y="163.88" class="st9" width="1091" height="52.12"/>
	<text transform="matrix(1 0 0 1 294.9955 178.8779)"><tspan x="0" y="0" class="st10 st11">Cookies are text files containing data about your navigation.</tspan><tspan x="0" y="24" class="st10 st11">Like real biscuits they have an expiry date, after which they are deleted.</tspan></text>
</g>
<g>
	<g>
		<path class="st0" d="M769,311.5c-4.78,0-9.48,0.33-14.09,0.97c-1.79,0.25-2.4,2.52-0.99,3.66c8.7,7.04,13.9,18.24,12.55,30.58
			c-1.76,16.07-14.87,28.86-30.97,30.3c-3.23,0.29-6.38,0.13-9.39-0.43c-1.55-0.29-2.97,0.92-2.97,2.49l0.01,5.61
			c0,18.96-15.37,34.32-34.32,34.32c-7.4,0-14.25-2.35-19.85-6.33c-1.04-0.74-2.47,0.03-2.47,1.3V414
			c0,57.1,46.68,103.29,103.96,102.49c55.21-0.77,100.26-45.82,101.03-101.03C872.29,358.18,826.09,311.5,769,311.5z"/>
	</g>
</g>
<g>
	<g>
		<path class="st12" d="M407,311.5c-4.78,0-9.48,0.33-14.09,0.97c-1.79,0.25-2.4,2.52-0.99,3.66c8.7,7.04,13.9,18.24,12.55,30.58
			c-1.76,16.07-14.87,28.86-30.97,30.3c-3.23,0.29-6.38,0.13-9.39-0.43c-1.55-0.29-2.97,0.92-2.97,2.49l0.01,5.61
			c0,18.96-15.37,34.32-34.32,34.32c-7.4,0-14.25-2.35-19.85-6.33c-1.04-0.74-2.47,0.03-2.47,1.3V414
			c0,57.1,46.68,103.29,103.96,102.49c55.21-0.77,100.26-45.82,101.03-101.03C510.29,358.18,464.09,311.5,407,311.5z"/>
		<path class="st12" d="M326.82,419c18.96,0,34.32-15.37,34.32-34.32"/>
	</g>
</g>
<circle class="st0" cx="372.5" cy="478.5" r="16"/>
<circle class="st0" cx="460.92" cy="448.97" r="17.68"/>
<circle class="st0" cx="391.84" cy="426.06" r="10.34"/>
<circle class="st0" cx="460.5" cy="383.5" r="16"/>
<circle class="st0" cx="431.62" cy="486.16" r="7.3"/>
<circle class="st0" cx="428.09" cy="338.44" r="7.91"/>
<circle class="st13" cx="734.5" cy="478.5" r="16"/>
<circle class="st13" cx="822.92" cy="448.97" r="17.68"/>
<circle class="st13" cx="753.84" cy="426.06" r="10.34"/>
<circle class="st13" cx="822.5" cy="383.5" r="16"/>
<circle class="st13" cx="793.62" cy="486.16" r="7.3"/>
<circle class="st13" cx="790.09" cy="338.44" r="7.91"/>
<g>
	<circle class="st14" cx="210.75" cy="171.75" r="50.25"/>
	<circle class="st0" cx="199.47" cy="200.18" r="7.84"/>
	<circle class="st0" cx="237.43" cy="189.63" r="8.67"/>
	<circle class="st0" cx="203.11" cy="167.57" r="8.67"/>
	<circle class="st0" cx="178.07" cy="180.36" r="5.07"/>
	<circle class="st0" cx="237.22" cy="157.53" r="7.84"/>
	<circle class="st0" cx="223.06" cy="207.86" r="3.58"/>
	<circle class="st0" cx="191.69" cy="142.66" r="3.58"/>
	<circle class="st0" cx="221.34" cy="135.44" r="3.88"/>
</g>
<circle cx="379" cy="618" r="2"/>
<rect x="355" y="619" class="st7" width="6" height="6"/>
</svg>
