<svg xmlns="http://www.w3.org/2000/svg" viewBox="0 0 1312 400"><defs><style>.cls-1{font-size:18px;fill:#302f2b;}.cls-1,.cls-45,.cls-70{font-family:Messapia-Bold, Messapia;font-weight:700;}.cls-2{letter-spacing:-0.16em;}.cls-3{letter-spacing:-0.01em;}.cls-10,.cls-11,.cls-12,.cls-13,.cls-14,.cls-4,.cls-40,.cls-41,.cls-42,.cls-43,.cls-44,.cls-5,.cls-6,.cls-7,.cls-8,.cls-9{fill:#ffc914;}.cls-32,.cls-4{letter-spacing:0em;}.cls-27,.cls-5{letter-spacing:-0.01em;}.cls-34,.cls-6{letter-spacing:-0.01em;}.cls-57,.cls-8{letter-spacing:-0.01em;}.cls-30,.cls-9{letter-spacing:0em;}.cls-10,.cls-69{letter-spacing:-0.04em;}.cls-11,.cls-17{letter-spacing:0em;}.cls-12,.cls-56{letter-spacing:-0.01em;}.cls-13{letter-spacing:0em;}.cls-14,.cls-22{letter-spacing:0em;}.cls-15,.cls-40{letter-spacing:-0.02em;}.cls-16{letter-spacing:0em;}.cls-18{letter-spacing:-0.01em;}.cls-19{letter-spacing:-0.01em;}.cls-20{letter-spacing:-0.03em;}.cls-21{letter-spacing:-0.01em;}.cls-23{letter-spacing:-0.01em;}.cls-24{letter-spacing:-0.02em;}.cls-25{letter-spacing:-0.03em;}.cls-26{letter-spacing:-0.02em;}.cls-28{letter-spacing:0.01em;}.cls-29{letter-spacing:0em;}.cls-31{letter-spacing:-0.01em;}.cls-33{letter-spacing:0.03em;}.cls-35{letter-spacing:0em;}.cls-36{letter-spacing:0em;}.cls-37{letter-spacing:-0.05em;}.cls-38{letter-spacing:-0.02em;}.cls-39{letter-spacing:-0.04em;}.cls-41{letter-spacing:0.01em;}.cls-42,.cls-64{letter-spacing:0em;}.cls-43,.cls-65{letter-spacing:-0.01em;}.cls-44,.cls-53{letter-spacing:-0.04em;}.cls-45,.cls-70{font-size:48px;}.cls-45{fill:#00aeef;}.cls-46{letter-spacing:0em;}.cls-47{letter-spacing:-0.01em;}.cls-48{letter-spacing:-0.02em;}.cls-49{letter-spacing:-0.02em;}.cls-50{letter-spacing:-0.03em;}.cls-51{letter-spacing:-0.05em;}.cls-52{letter-spacing:-0.04em;}.cls-54{letter-spacing:0em;}.cls-55{letter-spacing:-0.07em;}.cls-58{letter-spacing:-0.02em;}.cls-59{letter-spacing:0em;}.cls-60{letter-spacing:-0.02em;}.cls-61{letter-spacing:-0.01em;}.cls-62{letter-spacing:-0.03em;}.cls-63{letter-spacing:0em;}.cls-66{letter-spacing:-0.04em;}.cls-67{letter-spacing:0em;}.cls-68{letter-spacing:-0.02em;}.cls-70,.cls-77{fill:#ff101f;}.cls-71{letter-spacing:-0.01em;}.cls-72{letter-spacing:-0.04em;}.cls-73{letter-spacing:-0.06em;}.cls-74{letter-spacing:0em;}.cls-75{fill:none;}.cls-75,.cls-76{stroke:#ff101f;stroke-miterlimit:10;stroke-width:2px;}.cls-76,.cls-78{fill:#fff;}</style></defs><g id="Livello_4" data-name="Livello 4"><text class="cls-1" transform="translate(72.95 315.26)"><tspan class="cls-2">Y</tspan><tspan class="cls-3" x="16.92" y="0">o</tspan><tspan x="32.9" y="0">u </tspan><tspan class="cls-4" x="55.15" y="0">l</tspan><tspan class="cls-5" x="61.04" y="0">o</tspan><tspan class="cls-6" x="76.97" y="0">s</tspan><tspan class="cls-7" x="91.84" y="0">e </tspan><tspan class="cls-8" x="113.83" y="0">c</tspan><tspan class="cls-9" x="128.65" y="0">o</tspan><tspan class="cls-10" x="144.74" y="0">n</tspan><tspan class="cls-11" x="160.94" y="0">t</tspan><tspan class="cls-12" x="172.31" y="0">r</tspan><tspan class="cls-13" x="183.33" y="0">o</tspan><tspan class="cls-14" x="199.4" y="0">l</tspan><tspan x="205.31" y="0"> </tspan><tspan class="cls-15" x="6.88" y="21.6">o</tspan><tspan class="cls-16" x="22.71" y="21.6">f </tspan><tspan class="cls-17" x="40.2" y="21.6">t</tspan><tspan class="cls-18" x="51.58" y="21.6">h</tspan><tspan x="68.35" y="21.6">e </tspan><tspan class="cls-19" x="90.35" y="21.6">d</tspan><tspan class="cls-20" x="106.17" y="21.6">a</tspan><tspan class="cls-21" x="121.74" y="21.6">t</tspan><tspan class="cls-22" x="133.06" y="21.6">a </tspan><tspan class="cls-23" x="155.26" y="21.6">b</tspan><tspan class="cls-24" x="171.15" y="21.6">u</tspan><tspan x="186.96" y="21.6">t </tspan><tspan class="cls-7"><tspan class="cls-15" x="-21.67" y="43.2">r</tspan><tspan class="cls-25" x="-10.69" y="43.2">e</tspan><tspan class="cls-3" x="4.72" y="43.2">t</tspan><tspan class="cls-17" x="16.04" y="43.2">a</tspan><tspan class="cls-18" x="32.06" y="43.2">i</tspan><tspan x="38.03" y="43.2">n </tspan><tspan class="cls-26" x="61" y="43.2">r</tspan><tspan class="cls-27" x="71.98" y="43.2">e</tspan><tspan class="cls-28" x="87.7" y="43.2">s</tspan><tspan class="cls-29" x="102.94" y="43.2">p</tspan><tspan class="cls-30" x="118.64" y="43.2">o</tspan><tspan class="cls-31" x="134.73" y="43.2">n</tspan><tspan class="cls-32" x="151.38" y="43.2">s</tspan><tspan class="cls-23" x="166.45" y="43.2">i</tspan><tspan class="cls-32" x="172.42" y="43.2">b</tspan><tspan class="cls-23" x="188.41" y="43.2">il</tspan><tspan class="cls-24" x="200.18" y="43.2">i</tspan><tspan class="cls-33" x="205.9" y="43.2">t</tspan><tspan x="217.85" y="43.2">y</tspan></tspan></text><text class="cls-1" transform="translate(257.37 53.86)">O<tspan class="cls-31" x="19.71" y="0">w</tspan><tspan class="cls-23" x="42.53" y="0">ne</tspan><tspan x="75.11" y="0">r</tspan><tspan class="cls-34" x="-16.12" y="21.6">c</tspan><tspan class="cls-30" x="-1.3" y="21.6">o</tspan><tspan class="cls-35" x="14.79" y="21.6">m</tspan><tspan class="cls-19" x="39.92" y="21.6">p</tspan><tspan class="cls-36" x="55.38" y="21.6">a</tspan><tspan class="cls-37" x="71.4" y="21.6">n</tspan><tspan x="87.31" y="21.6">y</tspan></text><text class="cls-1" transform="translate(531.17 307.16)"><tspan class="cls-15">C</tspan><tspan class="cls-32" x="18.49" y="0">l</tspan><tspan class="cls-21" x="24.37" y="0">o</tspan><tspan class="cls-32" x="40.36" y="0">u</tspan><tspan x="56.5" y="0">d </tspan><tspan class="cls-30" x="78.59" y="0">p</tspan><tspan class="cls-38" x="94.19" y="0">r</tspan><tspan class="cls-39" x="105.21" y="0">o</tspan><tspan class="cls-34" x="120.6" y="0">v</tspan><tspan class="cls-32" x="135.86" y="0">i</tspan><tspan class="cls-30" x="141.93" y="0">d</tspan><tspan class="cls-23" x="157.9" y="0">e</tspan><tspan x="173.7" y="0">r</tspan><tspan x="7.89" y="21.6">-</tspan><tspan class="cls-40" x="18.69" y="21.6">r</tspan><tspan class="cls-5" x="29.67" y="21.6">e</tspan><tspan class="cls-41" x="45.39" y="21.6">s</tspan><tspan class="cls-42" x="60.63" y="21.6">p</tspan><tspan class="cls-9" x="76.33" y="21.6">o</tspan><tspan class="cls-43" x="92.42" y="21.6">n</tspan><tspan class="cls-11" x="109.07" y="21.6">sa</tspan><tspan class="cls-44" x="140.08" y="21.6">b</tspan><tspan class="cls-4" x="155.29" y="21.6">l</tspan><tspan class="cls-7" x="161.18" y="21.6">e</tspan></text><text class="cls-45" transform="translate(810.29 84.11)"><tspan class="cls-46">B</tspan><tspan class="cls-47" x="47.9" y="0">en</tspan><tspan class="cls-48" x="134.78" y="0">ef</tspan><tspan class="cls-49" x="205.63" y="0">i</tspan><tspan x="220.89" y="0">t</tspan></text><text class="cls-1" transform="translate(811.68 118.29)"><tspan class="cls-19">d</tspan><tspan class="cls-50" x="15.82" y="0">a</tspan><tspan class="cls-3" x="31.39" y="0">t</tspan><tspan x="42.71" y="0">a </tspan><tspan class="cls-3" x="64.91" y="0">i</tspan><tspan x="70.85" y="0">s </tspan><tspan class="cls-51" x="92.02" y="0">a</tspan><tspan class="cls-52" x="107.28" y="0">v</tspan><tspan class="cls-17" x="122.11" y="0">a</tspan><tspan class="cls-18" x="138.13" y="0">i</tspan><tspan class="cls-3" x="144.11" y="0">l</tspan><tspan class="cls-17" x="149.87" y="0">a</tspan><tspan class="cls-53" x="165.89" y="0">b</tspan><tspan class="cls-54" x="181.1" y="0">l</tspan><tspan class="cls-16" x="186.98" y="0">e </tspan><tspan class="cls-20" x="208.98" y="0">a</tspan><tspan x="224.55" y="0">t </tspan><tspan class="cls-17" x="242.1" y="0">a</tspan><tspan class="cls-18" x="258.12" y="0">l</tspan><tspan class="cls-22" x="263.91" y="0">l </tspan><tspan class="cls-36" x="275.9" y="0">t</tspan><tspan class="cls-23" x="287.28" y="0">im</tspan><tspan class="cls-27" x="318.22" y="0">e</tspan><tspan x="333.93" y="0">s </tspan><tspan class="cls-36" x="355.1" y="0">a</tspan><tspan class="cls-23" x="371.12" y="0">n</tspan><tspan x="387.9" y="0">d </tspan><tspan class="cls-55" x="0" y="21.6">f</tspan><tspan class="cls-56" x="10.19" y="21.6">r</tspan><tspan class="cls-30" x="21.2" y="21.6">o</tspan><tspan x="37.3" y="21.6">m </tspan><tspan class="cls-17" x="68.45" y="21.6">a</tspan><tspan class="cls-37" x="84.47" y="21.6">n</tspan><tspan x="100.39" y="21.6">y </tspan><tspan class="cls-30" x="121.68" y="21.6">d</tspan><tspan class="cls-53" x="137.65" y="21.6">e</tspan><tspan class="cls-34" x="152.77" y="21.6">v</tspan><tspan class="cls-30" x="168.03" y="21.6">i</tspan><tspan class="cls-57" x="174.08" y="21.6">c</tspan><tspan x="188.89" y="21.6">e </tspan><tspan class="cls-31" x="210.89" y="21.6">w</tspan><tspan class="cls-58" x="233.71" y="21.6">i</tspan><tspan class="cls-17" x="239.43" y="21.6">t</tspan><tspan class="cls-18" x="250.81" y="21.6">h</tspan><tspan class="cls-3" x="267.59" y="21.6">o</tspan><tspan class="cls-58" x="283.57" y="21.6">u</tspan><tspan x="299.38" y="21.6">t </tspan><tspan class="cls-17" x="316.92" y="21.6">t</tspan><tspan class="cls-18" x="328.3" y="21.6">h</tspan><tspan class="cls-16" x="345.08" y="21.6">e </tspan><tspan class="cls-18" x="367.07" y="21.6">n</tspan><tspan class="cls-59" x="383.85" y="21.6">ee</tspan><tspan x="415.64" y="21.6">d </tspan><tspan class="cls-60" x="0" y="43.2">t</tspan><tspan x="11.18" y="43.2">o </tspan><tspan class="cls-18" x="33.39" y="43.2">pu</tspan><tspan class="cls-61" x="64.98" y="43.2">r</tspan><tspan class="cls-17" x="76.01" y="43.2">c</tspan><tspan class="cls-61" x="90.95" y="43.2">h</tspan><tspan class="cls-19" x="107.59" y="43.2">a</tspan><tspan class="cls-34" x="123.52" y="43.2">s</tspan><tspan x="138.38" y="43.2">e </tspan><tspan class="cls-62" x="160.38" y="43.2">e</tspan><tspan class="cls-63" x="175.73" y="43.2">x</tspan><tspan class="cls-64" x="192.28" y="43.2">p</tspan><tspan class="cls-23" x="207.97" y="43.2">e</tspan><tspan class="cls-65" x="223.78" y="43.2">n</tspan><tspan class="cls-32" x="240.42" y="43.2">s</tspan><tspan class="cls-34" x="255.49" y="43.2">i</tspan><tspan class="cls-66" x="261.36" y="43.2">v</tspan><tspan x="276.08" y="43.2">e </tspan><tspan class="cls-34" x="298.08" y="43.2">s</tspan><tspan class="cls-23" x="312.95" y="43.2">e</tspan><tspan class="cls-67" x="328.75" y="43.2">r</tspan><tspan class="cls-66" x="340.13" y="43.2">v</tspan><tspan class="cls-23" x="354.85" y="43.2">e</tspan><tspan class="cls-68" x="370.65" y="43.2">r</tspan><tspan x="381.6" y="43.2">s </tspan><tspan class="cls-30" x="0" y="64.8">o</tspan><tspan x="16.09" y="64.8">r </tspan><tspan class="cls-65" x="33.46" y="64.8">m</tspan><tspan class="cls-36" x="58.3" y="64.8">a</tspan><tspan class="cls-23" x="74.32" y="64.8">i</tspan><tspan class="cls-69" x="80.3" y="64.8">n</tspan><tspan class="cls-21" x="96.5" y="64.8">t</tspan><tspan class="cls-36" x="107.82" y="64.8">a</tspan><tspan class="cls-23" x="123.84" y="64.8">i</tspan><tspan x="129.82" y="64.8">n </tspan><tspan class="cls-17" x="152.78" y="64.8">t</tspan><tspan class="cls-18" x="164.16" y="64.8">he</tspan><tspan x="196.74" y="64.8">m </tspan><tspan class="cls-34" x="227.9" y="64.8">s</tspan><tspan class="cls-59" x="242.77" y="64.8">e</tspan><tspan class="cls-65" x="258.66" y="64.8">c</tspan><tspan class="cls-23" x="273.46" y="64.8">u</tspan><tspan class="cls-15" x="289.51" y="64.8">r</tspan><tspan class="cls-17" x="300.49" y="64.8">e</tspan><tspan class="cls-34" x="316.31" y="64.8">l</tspan><tspan x="322" y="64.8">y</tspan></text><text class="cls-70" transform="translate(811.25 285.01)">R<tspan class="cls-71" x="47.66" y="0">i</tspan><tspan class="cls-72" x="63.5" y="0">s</tspan><tspan class="cls-73" x="101.95" y="0">k</tspan><tspan class="cls-74" x="141.22" y="0">s</tspan></text><path d="M816.41,305.61a1.48,1.48,0,1,1,1.6-1.48A1.41,1.41,0,0,1,816.41,305.61Zm-1.51,1.54v9h3v-9Z"/><path d="M830.2,303.34l-.59,2.17,0,.08a3.06,3.06,0,0,0-3.87-.88,2.43,2.43,0,0,0-1.17,2.23h4.1v2.16h-4.1l0,6.3v.76h-2.9v-.72l0-6.32H820V307h1.64a4.63,4.63,0,0,1,2.7-4.33A5.94,5.94,0,0,1,830.2,303.34Z"/><path d="M839.43,317.2c1.64.79,3.28.07,3.28-1.06l-5.44-8.9,0-.09h3.24l3.89,6.47,3.89-6.38,0-.09h3.24l0,.09-6.09,9.8c-1.75,2.79-4.27,3.42-6.7,2.48Z"/><path d="M852,311.67c0-3.18,3-5.27,7.35-5.27s7.34,2.09,7.34,5.27c0,3-3.13,5-7.34,5S852,314.7,852,311.67Zm11.54,0c0-1.76-1.67-2.93-4.19-2.93s-4.2,1.17-4.2,2.93,1.68,2.88,4.2,2.88S863.5,313.4,863.5,311.67Z"/><path d="M882,316.16h-3v-1.23c-.87,1-2.09,1.77-4.56,1.77-5,0-5.8-2.58-5.8-6.11v-3.44h3v3.44c0,2.69.9,3.93,3.24,3.93a5,5,0,0,0,4.09-1.53v-5.84h3Z"/><path d="M897.52,306.4a13.27,13.27,0,0,1,6.27,1.51l-1,2.18a10,10,0,0,0-5.22-1.35c-2.5,0-4.18,1.11-4.18,2.81s1.68,2.81,4.18,2.81c2.14,0,4.39-.45,5.2-1.1l1,2.19a13.5,13.5,0,0,1-6.25,1.25c-4.23,0-7.33-2.06-7.33-5.15S893.29,306.4,897.52,306.4Z"/><path d="M920,312.72v3.44h-3v-3.44c0-2.69-1.09-3.93-3.43-3.93a6.19,6.19,0,0,0-4.62,1.64v5.73h-3V302.65h3v5.8a6.62,6.62,0,0,1,5.09-2C919,306.45,920,309.19,920,312.72Z"/><path d="M921.91,311.67c0-3.18,3-5.27,7.34-5.27s7.35,2.09,7.35,5.27c0,3-3.13,5-7.35,5S921.91,314.7,921.91,311.67Zm11.54,0c0-1.76-1.68-2.93-4.2-2.93s-4.19,1.17-4.19,2.93,1.67,2.88,4.19,2.88S933.45,313.4,933.45,311.67Z"/><path d="M938,311.67c0-3.18,3-5.27,7.35-5.27s7.35,2.09,7.35,5.27c0,3-3.14,5-7.35,5S938,314.7,938,311.67Zm11.55,0c0-1.76-1.68-2.93-4.2-2.93s-4.19,1.17-4.19,2.93,1.67,2.88,4.19,2.88S949.58,313.4,949.58,311.67Z"/><path d="M967,307.69l-1,1.95a11.86,11.86,0,0,0-4.9-1.12c-1.6-.09-3.76-.12-3.76.83s2.07.77,5.38,1c2.57.18,4.79.48,4.84,2.93s-3,3.35-6.6,3.35a13.63,13.63,0,0,1-7-1.67l1.09-2a10.86,10.86,0,0,0,5.82,1.51c2,0,3.74-.18,3.74-.95,0-.95-1-.67-5.07-.95-3.26-.24-4.81-1.57-4.81-3,0-1.95,2.25-3.33,6.5-3.13A14.72,14.72,0,0,1,967,307.69Z"/><path d="M972,312.43c0,1.51,1.86,1.93,4.36,1.93,2,0,4.2-.35,5-.92l.86,2c-1.26.72-3,1.14-5.89,1.14-4.52,0-7.51-1.87-7.51-4.76,0-3.06,2.7-5.43,7.17-5.43,5.09,0,7.31,2.55,7.31,6Zm8.18-1.69c0-1.32-1.84-1.95-4.09-1.95s-4.05.65-4.05,1.95Z"/><path d="M997.51,316.8c-2.5,0-4.39-1.67-4.39-3.83v-4.38h-2.29v-2.23h2.39l.33-2.56h2.61v2.56h4.64v2.23h-4.66v4c0,1.35.59,1.93,2,1.93a11,11,0,0,0,2.72-.54v2.26A11.35,11.35,0,0,1,997.51,316.8Z"/><path d="M1017,312.72v3.44h-3v-3.44c0-2.69-1.08-3.93-3.42-3.93a6.21,6.21,0,0,0-4.63,1.64v5.73h-3V302.65h3v5.8a6.64,6.64,0,0,1,5.1-2C1016.09,306.45,1017,309.19,1017,312.72Z"/><path d="M1022.13,312.43c0,1.51,1.86,1.93,4.36,1.93,2,0,4.19-.35,5-.92l.87,2c-1.26.72-3,1.14-5.89,1.14-4.52,0-7.51-1.87-7.51-4.76,0-3.06,2.7-5.43,7.17-5.43,5.09,0,7.31,2.55,7.31,6Zm8.18-1.69c0-1.32-1.84-1.95-4.09-1.95s-4.05.65-4.05,1.95Z"/><path d="M1062.87,307.15l0,.09-.69,1.28-3.89,7.37-.12.27h-3.37l-3.13-6-2.88,5.69-.13.27h-3.35l-3.85-7.64-.67-1.28,0-.09H1044l0,0,.61,1.35,2.25,5.08,3.11-6.47h3.17l.06.11.61,1.26,2.56,5.1,2.48-5.1.61-1.28.06-.09Z"/><path d="M1073.56,306.67v2.66a8.41,8.41,0,0,0-3.53,0,4.34,4.34,0,0,0-2.47,1.62v5.17h-3v-9h3v1.7a5.51,5.51,0,0,1,1.87-1.7A6.23,6.23,0,0,1,1073.56,306.67Z"/><path d="M1074.82,311.67c0-3.18,3-5.27,7.34-5.27s7.35,2.09,7.35,5.27c0,3-3.13,5-7.35,5S1074.82,314.7,1074.82,311.67Zm11.54,0c0-1.76-1.68-2.93-4.2-2.93s-4.19,1.17-4.19,2.93,1.67,2.88,4.19,2.88S1086.36,313.4,1086.36,311.67Z"/><path d="M1105.73,312.72v3.44h-3v-3.44c0-2.69-1.08-3.93-3.42-3.93a7.18,7.18,0,0,0-4.63,1.75v5.62h-3v-9h3v1.43a7.48,7.48,0,0,1,5.1-2.13C1104.79,306.45,1105.73,309.19,1105.73,312.72Z"/><path d="M1121,307.15v8.2c0,3.25-1.87,4.57-6.53,4.64a15.9,15.9,0,0,1-5.8-.77v-2.33a13,13,0,0,0,5.8,1c2.66-.2,3.73-.85,3.71-2.25v-.43a6.63,6.63,0,0,1-4.52,1.35c-3.6,0-6-1.77-6-4.7s2.38-5,6-5a6,6,0,0,1,4.39,1.62l0-1.3Zm-2.86,6.25,0-3.24c-.62-.7-2.16-1.17-4-1.17-2,0-3.4,1.13-3.4,2.83s1.36,2.81,3.4,2.81A6,6,0,0,0,1118.18,313.4Z"/><path d="M1137,316.7a6.58,6.58,0,0,1-4.65-1.66v4.72h-3V307.15h3v1.41a6.21,6.21,0,0,1,4.65-1.73c3.7,0,6.15,1.94,6.17,5S1140.66,316.7,1137,316.7Zm3-4.88c0-1.7-1.41-2.83-3.51-2.83-1.89,0-3.6.49-4.18,1.24v3.12c.65.77,2.36,1.28,4.18,1.28C1138.59,314.63,1140,313.51,1140,311.82Z"/><path d="M1154.29,306.67v2.66a8.41,8.41,0,0,0-3.53,0,4.31,4.31,0,0,0-2.47,1.62l0-.16v5.33h-3v-9h3v1.7a5.53,5.53,0,0,1,1.88-1.7A6.23,6.23,0,0,1,1154.29,306.67Z"/><path d="M1155.55,311.67c0-3.18,3-5.27,7.34-5.27s7.35,2.09,7.35,5.27c0,3-3.13,5-7.35,5S1155.55,314.7,1155.55,311.67Zm11.54,0c0-1.76-1.68-2.93-4.2-2.93s-4.19,1.17-4.19,2.93,1.67,2.88,4.19,2.88S1167.09,313.4,1167.09,311.67Z"/><path d="M1174.93,308.52l3.1,5.1,3-5.1.78-1.28,0-.09h3.42l0,.09-.78,1.28-4.57,7.37-.18.27h-3.42l-5.53-8.92,0-.09h3.42l.05.09Z"/><path d="M1188.52,305.61a1.49,1.49,0,1,1,1.61-1.48A1.41,1.41,0,0,1,1188.52,305.61Zm-1.51,1.54v9h3v-9Z"/><path d="M1206.11,302.65v13.51h-3V315a6.23,6.23,0,0,1-4.65,1.73c-3.71,0-6.16-1.95-6.17-5s2.46-4.88,6.17-4.88a6.58,6.58,0,0,1,4.65,1.66v-5.84Zm-3,10.64v-3.11c-.65-.78-2.31-1.28-4.18-1.28-2.11,0-3.51,1.12-3.51,2.81s1.4,2.83,3.51,2.83C1200.85,314.54,1202.51,314.05,1203.09,313.29Z"/><path d="M1211.38,312.43c0,1.51,1.86,1.93,4.36,1.93,2,0,4.2-.35,5-.92l.87,2c-1.26.72-3,1.14-5.89,1.14-4.52,0-7.51-1.87-7.51-4.76,0-3.06,2.7-5.43,7.17-5.43,5.09,0,7.31,2.55,7.31,6Zm8.18-1.69c0-1.32-1.84-1.95-4.09-1.95s-4,.65-4,1.95Z"/><path d="M1233.8,306.67v2.66a8.41,8.41,0,0,0-3.53,0,4.27,4.27,0,0,0-2.47,1.62l0-.16v5.33h-3v-9h3v1.7a5.6,5.6,0,0,1,1.87-1.7A6.26,6.26,0,0,1,1233.8,306.67Z"/><path d="M820.77,338.4c-2.51,0-4.4-1.67-4.4-3.83v-4.38h-2.28V328h2.39l.33-2.56h2.61V328h4.64v2.23H819.4v4c0,1.35.59,1.93,2,1.93a10.59,10.59,0,0,0,2.72-.55v2.27A11.35,11.35,0,0,1,820.77,338.4Z"/><path d="M840.28,334.32v3.44h-3v-3.44c0-2.69-1.08-3.93-3.42-3.93a6.21,6.21,0,0,0-4.63,1.64v5.73h-3V324.25h3v5.8a6.62,6.62,0,0,1,5.09-2C839.35,328.05,840.28,330.79,840.28,334.32Z"/><path d="M845.39,334c0,1.51,1.86,1.93,4.36,1.93,2,0,4.19-.35,5-.92l.87,2c-1.26.72-3,1.14-5.89,1.14-4.52,0-7.51-1.87-7.51-4.76,0-3.06,2.7-5.43,7.17-5.43,5.09,0,7.31,2.55,7.31,6Zm8.18-1.69c0-1.32-1.84-1.95-4.09-1.95s-4.05.65-4.05,1.95Z"/><path d="M867.8,328.27v2.66a8.41,8.41,0,0,0-3.53,0,4.28,4.28,0,0,0-2.46,1.62l0-.16v5.33h-3v-9h3v1.7a5.6,5.6,0,0,1,1.87-1.7A6.17,6.17,0,0,1,867.8,328.27Z"/><path d="M872.17,334c0,1.51,1.86,1.93,4.36,1.93,2.05,0,4.2-.35,5-.92l.87,2c-1.26.72-3,1.14-5.89,1.14-4.52,0-7.51-1.87-7.51-4.76,0-3.06,2.7-5.43,7.17-5.43,5.09,0,7.31,2.55,7.31,6Zm8.18-1.69c0-1.32-1.84-1.95-4.09-1.95s-4,.65-4,1.95Z"/><path d="M893.34,327.21a1.48,1.48,0,1,1,1.6-1.48A1.41,1.41,0,0,1,893.34,327.21Zm-1.51,1.54v9h3v-9Z"/><path d="M910,329.29l-1,1.95a11.82,11.82,0,0,0-4.9-1.12c-1.6-.09-3.76-.12-3.76.83s2.07.77,5.38,1c2.58.18,4.79.48,4.85,2.93s-3,3.35-6.61,3.35a13.63,13.63,0,0,1-7-1.67l1.1-2a10.82,10.82,0,0,0,5.81,1.51c2,0,3.75-.18,3.75-.95,0-.95-1-.67-5.08-.95-3.26-.24-4.81-1.57-4.81-3,0-1.95,2.25-3.33,6.5-3.14A14.8,14.8,0,0,1,910,329.29Z"/><path d="M929.29,337.77v-1.33c-1.08,1-3.57,1.64-5.53,1.64-3.54,0-5.36-.74-5.36-2.93,0-1.9,1.82-3,6.64-3h4.25c0-1.56-1.85-1.8-4.11-1.8a10.47,10.47,0,0,0-5.65,1.55l0-.11-.69-2.08c1-.85,3.84-1.7,6.37-1.7,4.49,0,7,1.71,7,4.29v3.6l.36,1.8v0Zm0-3.78v-.16h-4.74c-2.3,0-3.07.33-3.07,1.13s.73,1,3.09,1C927.33,336,929.29,335.22,929.29,334Z"/><path d="M950.08,328.27v2.66a8.41,8.41,0,0,0-3.53,0,4.34,4.34,0,0,0-2.47,1.62v5.17h-3v-9h3v1.7a5.51,5.51,0,0,1,1.87-1.7A6.17,6.17,0,0,1,950.08,328.27Z"/><path d="M953.52,327.21a1.48,1.48,0,1,1,1.6-1.48A1.42,1.42,0,0,1,953.52,327.21ZM952,328.75v9h3v-9Z"/><path d="M970.2,329.29l-1,1.95a11.76,11.76,0,0,0-4.89-1.12c-1.61-.09-3.77-.12-3.77.83s2.07.77,5.39,1c2.57.18,4.79.48,4.84,2.93s-2.95,3.35-6.61,3.35a13.69,13.69,0,0,1-7-1.67l1.1-2a10.83,10.83,0,0,0,5.82,1.51c2,0,3.74-.18,3.74-.95,0-.95-1-.67-5.08-.95-3.25-.24-4.8-1.57-4.8-3,0-1.95,2.25-3.33,6.5-3.14A14.73,14.73,0,0,1,970.2,329.29Z"/><path d="M985.88,337.76h-4.55l0,0-.67-.63L977.4,334l-2.1,1.45v2.34h-3V324.25h3v8.3l5.2-3.74.09-.06H985l-.1.08L980,332.16l5.86,5.58Z"/><path d="M993.4,333.27c0-3.18,3-5.27,7.35-5.27s7.34,2.09,7.34,5.27-3.13,5-7.34,5S993.4,336.3,993.4,333.27Zm11.54,0c0-1.76-1.67-2.93-4.19-2.93s-4.2,1.17-4.2,2.93,1.68,2.88,4.2,2.88S1004.94,335,1004.94,333.27Z"/><path d="M1019.43,324.94l-.59,2.17,0,.08a3.07,3.07,0,0,0-3.87-.89,2.48,2.48,0,0,0-1.17,2.24h4.11v2.16h-4.11l0,6.3v.76h-2.89v-7h-1.63v-2.17h1.63a4.63,4.63,0,0,1,2.7-4.32A5.94,5.94,0,0,1,1019.43,324.94Z"/><path d="M1030.47,324.25v13.51h-3V324.25Z"/><path d="M1032.61,333.27c0-3.18,3-5.27,7.34-5.27s7.35,2.09,7.35,5.27-3.13,5-7.35,5S1032.61,336.3,1032.61,333.27Zm11.54,0c0-1.76-1.68-2.93-4.2-2.93s-4.19,1.17-4.19,2.93,1.67,2.88,4.19,2.88S1044.15,335,1044.15,333.27Z"/><path d="M1061.61,329.29l-1,1.95a11.86,11.86,0,0,0-4.9-1.12c-1.6-.09-3.76-.12-3.76.83s2.07.77,5.38,1c2.58.18,4.79.48,4.84,2.93s-3,3.35-6.6,3.35a13.63,13.63,0,0,1-7-1.67l1.1-2a10.8,10.8,0,0,0,5.81,1.51c2,0,3.75-.18,3.75-.95,0-.95-1-.67-5.08-.95-3.26-.24-4.81-1.57-4.81-3,0-1.95,2.25-3.33,6.5-3.14A14.8,14.8,0,0,1,1061.61,329.29Z"/><path d="M1065.93,327.21a1.48,1.48,0,1,1,1.6-1.48A1.42,1.42,0,0,1,1065.93,327.21Zm-1.52,1.54v9h3v-9Z"/><path d="M1084.4,334.32v3.44h-3v-3.44c0-2.69-1.08-3.93-3.42-3.93a7.18,7.18,0,0,0-4.63,1.75v5.62h-3v-9h3v1.43a7.48,7.48,0,0,1,5.1-2.13C1083.46,328.05,1084.4,330.79,1084.4,334.32Z"/><path d="M1099.71,328.75V337c0,3.25-1.87,4.57-6.53,4.64a15.9,15.9,0,0,1-5.8-.77v-2.33a13,13,0,0,0,5.8,1c2.66-.2,3.73-.85,3.71-2.25v-.43a6.63,6.63,0,0,1-4.52,1.35c-3.6,0-6-1.77-6-4.7s2.38-5,6-5a6,6,0,0,1,4.39,1.62l0-1.3Zm-2.86,6.25,0-3.24c-.62-.7-2.16-1.17-4-1.17-2,0-3.4,1.13-3.4,2.83s1.36,2.81,3.4,2.81A6,6,0,0,0,1096.85,335Z"/><path d="M1121.44,324.25v13.51h-3v-1.19a6.24,6.24,0,0,1-4.65,1.73c-3.71,0-6.16-1.95-6.18-5s2.47-4.88,6.18-4.88a6.6,6.6,0,0,1,4.65,1.66v-5.84Zm-3,10.64v-3.11c-.65-.78-2.31-1.28-4.18-1.28-2.11,0-3.51,1.12-3.51,2.81s1.4,2.83,3.51,2.83C1116.18,336.14,1117.84,335.65,1118.42,334.89Z"/><path d="M1134.58,337.77v-1.33c-1.08,1-3.57,1.64-5.53,1.64-3.54,0-5.36-.74-5.36-2.93,0-1.9,1.82-3,6.64-3h4.25c0-1.56-1.85-1.8-4.11-1.8a10.47,10.47,0,0,0-5.65,1.55l0-.11-.69-2.08c1-.85,3.84-1.7,6.37-1.7,4.49,0,7,1.71,7,4.29v3.6l.36,1.8v0Zm0-3.78v-.16h-4.74c-2.3,0-3.07.33-3.07,1.13s.73,1,3.09,1C1132.62,336,1134.58,335.22,1134.58,334Z"/><path d="M1145.67,338.4c-2.51,0-4.4-1.67-4.4-3.83v-4.38H1139V328h2.39l.33-2.56h2.61V328H1149v2.23h-4.66v4c0,1.35.59,1.93,2,1.93a10.51,10.51,0,0,0,2.71-.55v2.27A11.28,11.28,0,0,1,1145.67,338.4Z"/><path d="M1161.47,337.77v-1.33c-1.08,1-3.56,1.64-5.53,1.64-3.54,0-5.36-.74-5.36-2.93,0-1.9,1.82-3,6.64-3h4.25c0-1.56-1.85-1.8-4.1-1.8a10.48,10.48,0,0,0-5.66,1.55l0-.11-.69-2.08c1-.85,3.84-1.7,6.38-1.7,4.48,0,7,1.71,7,4.29v3.6l.36,1.8v0Zm0-3.78v-.16h-4.73c-2.31,0-3.08.33-3.08,1.13s.74,1,3.09,1C1159.51,336,1161.47,335.22,1161.47,334Z"/><path d="M814.09,354.87c0-3.18,3-5.27,7.34-5.27s7.35,2.09,7.35,5.27c0,3-3.13,5-7.35,5S814.09,357.9,814.09,354.87Zm11.54,0c0-1.76-1.68-2.93-4.2-2.93s-4.19,1.17-4.19,2.93,1.67,2.88,4.19,2.88S825.63,356.6,825.63,354.87Z"/><path d="M839.94,349.87v2.66a8.41,8.41,0,0,0-3.53,0,4.31,4.31,0,0,0-2.47,1.62v5.17h-3v-9h3v1.7a5.42,5.42,0,0,1,1.87-1.7A6.23,6.23,0,0,1,839.94,349.87Z"/><path d="M862.37,355.92v3.44h-3v-3.44c0-2.69-1.08-3.93-3.42-3.93a6.21,6.21,0,0,0-4.63,1.64v5.73h-3V345.85h3v5.8a6.64,6.64,0,0,1,5.1-2C861.43,349.65,862.37,352.39,862.37,355.92Z"/><path d="M875.34,359.37V358c-1.08,1-3.56,1.64-5.52,1.64-3.55,0-5.37-.74-5.37-2.93,0-1.89,1.82-3,6.64-3h4.25c-.05-1.56-1.85-1.8-4.1-1.8a10.42,10.42,0,0,0-5.65,1.55l0-.1-.68-2.09c1-.85,3.83-1.7,6.37-1.7,4.48,0,7,1.71,7,4.29v3.6l.36,1.8v.05Zm0-3.78v-.16h-4.73c-2.31,0-3.08.32-3.08,1.14s.74,1,3.1,1C873.38,357.57,875.34,356.82,875.34,355.59Z"/><path d="M883.44,351.72l3.1,5.1,3-5.1.77-1.28.06-.09h3.42l0,.09-.78,1.28-4.57,7.37-.18.27h-3.42l-5.53-8.92-.05-.09h3.42l0,.09Z"/><path d="M897,348.81a1.48,1.48,0,1,1,1.6-1.48A1.41,1.41,0,0,1,897,348.81Zm-1.51,1.54v9h3v-9Z"/><path d="M915.5,355.92v3.44h-3v-3.44c0-2.69-1.08-3.93-3.42-3.93a7.18,7.18,0,0,0-4.63,1.75v5.62h-3v-9h3v1.43a7.48,7.48,0,0,1,5.1-2.13C914.57,349.65,915.5,352.39,915.5,355.92Z"/><path d="M930.82,350.35v8.2c0,3.26-1.87,4.57-6.54,4.64a15.84,15.84,0,0,1-5.79-.77v-2.33a13,13,0,0,0,5.79,1c2.67-.2,3.73-.85,3.71-2.25v-.43a6.62,6.62,0,0,1-4.52,1.35c-3.6,0-6-1.77-6-4.7s2.37-5,6-5a6,6,0,0,1,4.4,1.62l0-1.3ZM928,356.6l-.06-3.24c-.61-.7-2.16-1.17-4-1.17-2,0-3.41,1.13-3.41,2.83s1.37,2.81,3.41,2.81A6,6,0,0,0,928,356.6Z"/><path d="M941,348.81a1.49,1.49,0,1,1,1.61-1.48A1.41,1.41,0,0,1,941,348.81Zm-1.51,1.54v9h3v-9Z"/><path d="M951.1,360c-2.5,0-4.39-1.67-4.39-3.83v-4.38h-2.28v-2.23h2.39l.32-2.56h2.61v2.56h4.65v2.23h-4.66v4c0,1.35.59,1.93,2,1.93a10.93,10.93,0,0,0,2.72-.54v2.26A11.35,11.35,0,0,1,951.1,360Z"/><path d="M975.05,350.89l-1,1.95a11.86,11.86,0,0,0-4.9-1.12c-1.6-.09-3.76-.12-3.76.83s2.07.77,5.38,1c2.57.18,4.79.48,4.84,2.93s-3,3.35-6.6,3.35a13.63,13.63,0,0,1-7-1.67l1.09-2a10.86,10.86,0,0,0,5.82,1.51c2,0,3.74-.18,3.74-1,0-1-1-.67-5.07-1-3.26-.23-4.81-1.56-4.81-3,0-1.95,2.25-3.33,6.5-3.13A14.72,14.72,0,0,1,975.05,350.89Z"/><path d="M983.63,360c-2.5,0-4.39-1.67-4.39-3.83v-4.38H977v-2.23h2.4l.32-2.56h2.61v2.56h4.65v2.23h-4.67v4c0,1.35.6,1.93,2,1.93a10.93,10.93,0,0,0,2.72-.54v2.26A11.35,11.35,0,0,1,983.63,360Z"/><path d="M988.13,354.87c0-3.18,3-5.27,7.34-5.27s7.35,2.09,7.35,5.27c0,3-3.13,5-7.35,5S988.13,357.9,988.13,354.87Zm11.54,0c0-1.76-1.67-2.93-4.2-2.93s-4.19,1.17-4.19,2.93,1.67,2.88,4.19,2.88S999.67,356.6,999.67,354.87Z"/><path d="M1008,345.85v13.51h-3V345.85Z"/><path d="M1013.24,355.63c0,1.51,1.85,1.93,4.36,1.93,2,0,4.19-.35,5-.92l.86,2c-1.26.72-3,1.14-5.88,1.14-4.52,0-7.51-1.87-7.51-4.75,0-3.07,2.7-5.44,7.17-5.44,5.09,0,7.3,2.55,7.3,6Zm8.17-1.69c0-1.32-1.83-1.95-4.08-1.95s-4.05.65-4.05,1.95Z"/><path d="M1040.71,355.92v3.44h-3v-3.44c0-2.69-1.08-3.93-3.43-3.93a7.15,7.15,0,0,0-4.62,1.75v5.62h-3v-9h3v1.43a7.48,7.48,0,0,1,5.09-2.13C1039.77,349.65,1040.71,352.39,1040.71,355.92Z"/><polyline class="cls-75" points="366.56 74.93 374.36 77.99 368.85 83.64"/><polyline class="cls-75" points="300.81 297.4 300.26 289.05 307.71 291.63"/><polyline class="cls-75" points="548.11 187.37 545.05 195.17 539.4 189.66"/><path class="cls-75" d="M274,208.81c0-.51,0-1,0-1.51"/><path class="cls-75" d="M525.76,279a135.71,135.71,0,0,1-225.31,10.3"/><path class="cls-75" d="M451.31,79.65c1.68.54,3.35,1.11,5,1.71a135.82,135.82,0,0,1,88.14,111.8"/><path class="cls-75" d="M409.65,73.13a135.89,135.89,0,0,1,34.75,4.49"/><path class="cls-75" d="M274.39,198.17A135.77,135.77,0,0,1,374,77.86"/><path class="cls-76" d="M274,240.52h0a36.37,36.37,0,0,1,36.37,36.37v0a7.84,7.84,0,0,1-7.84,7.84H245.45a7.84,7.84,0,0,1-7.84-7.84v0A36.37,36.37,0,0,1,274,240.52Z"/><circle class="cls-76" cx="274.55" cy="221.52" r="17.47"/><path class="cls-76" d="M428.8,52.66V82.39a3.56,3.56,0,0,1,.3,5,2.13,2.13,0,0,1-.3.3v1.44a6,6,0,0,1,3.6,5.5v1.2h.5a6,6,0,0,1,11,0H448V52.66Z"/><path class="cls-76" d="M396.4,85.06a3.59,3.59,0,0,1,1.2-2.67V52.66H378.4v43.2h4.11a6,6,0,0,1,7.88-3.11,6.05,6.05,0,0,1,3.11,3.11h.5v-1.2a6,6,0,0,1,3.6-5.5V87.72A3.55,3.55,0,0,1,396.4,85.06Z"/><path class="cls-76" d="M397.6,34.66V82.39a3.6,3.6,0,1,1,2.4,6.27,6,6,0,0,1,6,6,7.2,7.2,0,1,1,14.4,0,6,6,0,0,1,6-6,3.6,3.6,0,1,1,2.4-6.27V34.66Z"/><circle class="cls-76" cx="413.2" cy="82.66" r="4.8"/><circle class="cls-76" cx="388" cy="88.66" r="3.6"/><circle class="cls-76" cx="438.4" cy="88.66" r="3.6"/><path class="cls-76" d="M413.2,87.46a7.2,7.2,0,0,1,7.2,7.2v9.59H406V94.66A7.2,7.2,0,0,1,413.2,87.46Z"/><path class="cls-76" d="M388,92.26a6,6,0,0,1,6,6v6H382v-6A6,6,0,0,1,388,92.26Z"/><path class="cls-76" d="M400,88.66a6,6,0,0,1,6,6v9.59H394V94.66A6,6,0,0,1,400,88.66Z"/><circle class="cls-76" cx="400" cy="85.06" r="3.6"/><path class="cls-76" d="M438.4,92.26a6,6,0,0,1,6,6v6h-12v-6A6,6,0,0,1,438.4,92.26Z"/><path class="cls-76" d="M426.4,88.66a6,6,0,0,1,6,6v9.59h-12V94.66A6,6,0,0,1,426.4,88.66Z"/><circle class="cls-76" cx="426.4" cy="85.06" r="3.6"/><path class="cls-75" d="M406,39.46h14.4v9.6H406Z"/><path class="cls-77" d="M402.4,57.46h2.4v2.4h-2.4Z"/><path class="cls-77" d="M402.4,62.26h2.4v2.4h-2.4Z"/><path class="cls-77" d="M402.4,67.06h2.4v2.4h-2.4Z"/><path class="cls-77" d="M402.4,71.86h2.4v2.4h-2.4Z"/><path class="cls-77" d="M407.2,57.46h2.4v2.4h-2.4Z"/><path class="cls-77" d="M407.2,62.26h2.4v2.4h-2.4Z"/><path class="cls-77" d="M407.2,67.06h2.4v2.4h-2.4Z"/><path class="cls-77" d="M407.2,71.86h2.4v2.4h-2.4Z"/><path class="cls-77" d="M412,57.46h2.4v2.4H412Z"/><path class="cls-77" d="M412,62.26h2.4v2.4H412Z"/><path class="cls-77" d="M412,67.06h2.4v2.4H412Z"/><path class="cls-77" d="M412,71.86h2.4v2.4H412Z"/><path class="cls-77" d="M416.8,57.46h2.4v2.4h-2.4Z"/><path class="cls-77" d="M407.2,52.66h2.4v2.4h-2.4Z"/><path class="cls-77" d="M412,52.66h2.4v2.4H412Z"/><path class="cls-77" d="M416.8,52.66h2.4v2.4h-2.4Z"/><path class="cls-77" d="M416.8,62.26h2.4v2.4h-2.4Z"/><path class="cls-77" d="M416.8,67.06h2.4v2.4h-2.4Z"/><path class="cls-77" d="M416.8,71.86h2.4v2.4h-2.4Z"/><path class="cls-77" d="M421.6,57.46H424v2.4h-2.4Z"/><path class="cls-77" d="M421.6,62.26H424v2.4h-2.4Z"/><path class="cls-77" d="M421.6,67.06H424v2.4h-2.4Z"/><path class="cls-77" d="M421.6,71.86H424v2.4h-2.4Z"/><line class="cls-75" x1="385.24" y1="57.46" x2="385.24" y2="77.86"/><line class="cls-75" x1="390.65" y1="57.46" x2="390.65" y2="77.86"/><line class="cls-75" x1="435.69" y1="57.46" x2="435.69" y2="77.86"/><line class="cls-75" x1="441.1" y1="57.46" x2="441.1" y2="77.86"/><path class="cls-77" d="M586.3,225.82a24.7,24.7,0,0,0-3,.18,20.7,20.7,0,0,0-26.5-13.58,26.93,26.93,0,0,0-51.37,11.33,26.27,26.27,0,0,0,.81,6.48,22.8,22.8,0,0,0,3.33,45.34H586.3a24.88,24.88,0,0,0,0-49.75Z"/><path class="cls-78" d="M587.4,273.06H508.87a19.64,19.64,0,0,1-.57-39.25,2.09,2.09,0,0,0,1.69-.95,2.23,2.23,0,0,0,.25-2c-4.21-12.4,2-26,14.06-30.46a23.14,23.14,0,0,1,29.78,14.09,2.22,2.22,0,0,0,1.18,1.26,2.06,2.06,0,0,0,1.7,0,16.6,16.6,0,0,1,7.09-1.62,17.16,17.16,0,0,1,16.65,14,2.13,2.13,0,0,0,2.5,1.71,21.16,21.16,0,0,1,4.2-.44c11.72,0,21.23,9.78,21.23,21.83S599.12,273.06,587.4,273.06Z"/></g></svg>